<?xml version="1.0" encoding="UTF-8"?>
<svg width="98.7204mm" height="29.5391mm" version="1.1" viewBox="0 0 98.7204 29.5391" xmlns="http://www.w3.org/2000/svg" xmlns:cc="http://creativecommons.org/ns#" xmlns:dc="http://purl.org/dc/elements/1.1/" xmlns:rdf="http://www.w3.org/1999/02/22-rdf-syntax-ns#">
 <metadata>
  <rdf:RDF>
   <cc:Work rdf:about="">
    <dc:format>image/svg+xml</dc:format>
    <dc:type rdf:resource="http://purl.org/dc/dcmitype/StillImage"/>
    <dc:title/>
   </cc:Work>
  </rdf:RDF>
 </metadata>
 <g transform="translate(-23.4911 -5.32356)">
  <g transform="translate(13)">
   <path transform="rotate(-15)" d="m14.6574 21.4042h9.08412v9.08438h-9.08412z" fill="none" stroke="#d1d1d1"/>
   <path transform="rotate(-15)" d="m24.9191 21.4044a1.17758 1.17758 0 0 1-1.17758 1.17758 1.17758 1.17758 0 0 1-1.17758-1.17758 1.17758 1.17758 0 0 1 1.17758-1.17758 1.17758 1.17758 0 0 1 1.17758 1.17758z" fill="#e2001a"/>
   <circle transform="rotate(-15)" cx="14.6574" cy="21.4042" r="1.17758" fill="#e2001a"/>
   <circle transform="rotate(-15)" cx="14.6574" cy="30.4886" r="1.17758" fill="#e2001a"/>
   <circle transform="rotate(-15)" cx="23.7415" cy="30.4886" r="1.17758" fill="#e2001a"/>
   <path d="m24.0851 15.7058 2.35114 8.77458" fill="none" stroke="#7b7b7b"/>
   <path d="m29.648 18.9176-8.77458 2.35114" fill="none" stroke="#7b7b7b"/>
   <path d="m22.9095 11.3184 1.17557 4.38729" fill="none" stroke="#d1d1d1"/>
   <path d="m16.486 22.4443 4.38742-1.1756" fill="none" stroke="#d1d1d1"/>
   <path d="m26.4362 24.4804 1.1756 4.38742" fill="none" stroke="#d1d1d1"/>
   <circle transform="rotate(-15)" cx="19.1994" cy="35.0307" r=".994862" fill="#e2001a"/>
   <path d="m29.648 18.9176 4.38742-1.1756" fill="none" stroke="#d1d1d1"/>
   <circle transform="rotate(-15)" cx="19.1994" cy="16.8622" r=".994862" fill="#e2001a"/>
   <circle transform="rotate(-15)" cx="10.1152" cy="25.9464" r=".994862" fill="#e2001a"/>
   <circle transform="rotate(-15)" cx="28.2837" cy="25.9464" r=".994862" fill="#e2001a"/>
   <path transform="rotate(-15)" d="m20.6611 21.4044a1.46164 1.46164 0 0 1-1.46164 1.46164 1.46164 1.46164 0 0 1-1.46164-1.46164 1.46164 1.46164 0 0 1 1.46164-1.46164 1.46164 1.46164 0 0 1 1.46164 1.46164z" fill="#e2001a"/>
   <circle transform="rotate(-15)" cx="14.6574" cy="25.9464" r="1.46164" fill="#e2001a"/>
   <circle transform="rotate(-15)" cx="19.1994" cy="30.4886" r="1.46164" fill="#e2001a"/>
   <circle transform="rotate(-15)" cx="23.7415" cy="25.9464" r="1.46164" fill="#e2001a"/>
   <path transform="rotate(-15)" d="m21.512 25.9464a2.31252 2.31252 0 0 1-2.31252 2.31252 2.31252 2.31252 0 0 1-2.31252-2.31252 2.31252 2.31252 0 0 1 2.31252-2.31252 2.31252 2.31252 0 0 1 2.31252 2.31252z" fill="#e2001a"/>
  </g>
  <g>
   <path transform="translate(-8.12089 -1.96783)" d="m69.9614 26.6917v-5.56436h-4.14488v1.77435h2.35634c-0.141948 1.29173-1.3627 2.14341-2.62604 2.14341-1.71757 0-2.95252-1.43367-2.95252-3.56289 0-2.22858 1.093-3.49192 2.89574-3.49192 1.16397 0 2.05824 0.454232 2.46989 1.66079h2.00147c-0.255506-2.12922-1.98727-3.47772-4.48556-3.47772-2.98091 0-5.01076 2.11502-5.01076 5.33724 0 3.13705 2.04405 5.35144 4.84043 5.35144 1.39109 0 2.32795-0.496818 3.12286-1.58982l0.255506 1.41948z" style="font-feature-settings:normal;font-variant-caps:normal;font-variant-ligatures:normal;font-variant-numeric:normal"/>
   <path transform="translate(-8.12089 -1.96783)" d="m76.1552 20.9286v-2.01566c-0.113559-0.0142-0.184533-0.0142-0.241313-0.0142-0.908465 0-1.70338 0.596181-2.12922 1.6324v-1.50465h-1.98727v7.66519h1.98727v-4.0739c0-1.16397 0.581986-1.74596 1.74596-1.74596 0.212922 0 0.35487 0.0142 0.624572 0.05678z" style="font-feature-settings:normal;font-variant-caps:normal;font-variant-ligatures:normal;font-variant-numeric:normal"/>
   <path transform="translate(-8.12089 -1.96783)" d="m79.3585 26.6917v-7.66519h-1.98727v7.66519z" style="font-feature-settings:normal;font-variant-caps:normal;font-variant-ligatures:normal;font-variant-numeric:normal"/>
   <path transform="translate(-8.12089 -1.96783)" d="m88.0932 26.6917v-10.348h-1.98727v3.67645c-0.496817-0.766519-1.16397-1.12139-2.11502-1.12139-1.83113 0-3.22222 1.66079-3.22222 3.97454 0 2.1718 1.19236 3.94615 3.22222 3.94615 0.951052 0 1.61821-0.354868 2.11502-1.00783v0.880077zm-1.98727-3.79001c0 1.39109-0.68135 2.25697-1.67498 2.25697-0.993636 0-1.67499-0.880077-1.67499-2.28536 0-1.41948 0.68135-2.31375 1.67499-2.31375 1.00783 0 1.67498 0.880077 1.67498 2.34214z" style="font-feature-settings:normal;font-variant-caps:normal;font-variant-ligatures:normal;font-variant-numeric:normal"/>
   <path transform="translate(-8.12089 -1.96783)" d="m97.5232 18.118v-1.77435h-8.28976v1.77435h3.13705v8.57366h2.12922v-8.57366z" style="font-feature-settings:normal;font-variant-caps:normal;font-variant-ligatures:normal;font-variant-numeric:normal"/>
   <path transform="translate(-8.12089 -1.96783)" d="m104.736 22.9158c0-2.59765-1.40529-4.01713-3.80421-4.01713-2.34214 0-3.77581 1.44787-3.77581 3.96035 0 2.52667 1.43367 3.96035 3.79001 3.96035 2.32794 0 3.79001-1.44787 3.79001-3.90357zm-1.98727-0.02839c0 1.43367-0.73813 2.32795-1.80274 2.32795-1.07881 0-1.80274-0.894272-1.80274-2.35634 0-1.46206 0.723935-2.35634 1.80274-2.35634 1.093 0 1.80274 0.880077 1.80274 2.38473z" style="font-feature-settings:normal;font-variant-caps:normal;font-variant-ligatures:normal;font-variant-numeric:normal"/>
   <path transform="translate(-8.12089 -1.96783)" d="m113.413 22.9158c0-2.59765-1.40528-4.01713-3.8042-4.01713-2.34214 0-3.77582 1.44787-3.77582 3.96035 0 2.52667 1.43368 3.96035 3.79001 3.96035 2.32795 0 3.79001-1.44787 3.79001-3.90357zm-1.98727-0.02839c0 1.43367-0.73813 2.32795-1.80274 2.32795-1.0788 0-1.80273-0.894272-1.80273-2.35634 0-1.46206 0.72393-2.35634 1.80273-2.35634 1.093 0 1.80274 0.880077 1.80274 2.38473z" style="font-feature-settings:normal;font-variant-caps:normal;font-variant-ligatures:normal;font-variant-numeric:normal"/>
   <path transform="translate(-8.12089 -1.96783)" d="m116.953 26.6917v-10.348h-1.98727v10.348z" style="font-feature-settings:normal;font-variant-caps:normal;font-variant-ligatures:normal;font-variant-numeric:normal"/>
   <path transform="translate(-8.12089 -1.96783)" d="m125.332 24.4205v-0.09936c0-0.880077-0.49682-1.53304-1.50464-1.83113l-2.51248-0.723934c-0.5536-0.156143-0.69555-0.283896-0.69555-0.596182 0-0.425844 0.45424-0.709739 1.14978-0.709739 0.95105 0 1.41948 0.340675 1.43367 1.03622h1.9163c-0.0284-1.6182-1.27753-2.59765-3.33578-2.59765-1.94468 0-3.15124 0.979441-3.15124 2.55506 0 0.936857 0.25551 1.44787 1.67499 1.88791l2.37053 0.73813c0.49681 0.156142 0.66715 0.312284 0.66715 0.525206 0 0.468428-0.5536 0.652961-1.47626 0.652961-0.90846 0-1.39109-0.170337-1.56142-0.993636h-1.94469c0.0568 1.67499 1.29173 2.55506 3.61967 2.55506 2.15761 0 3.34997-0.851688 3.34997-2.39892z" style="font-feature-settings:normal;font-variant-caps:normal;font-variant-ligatures:normal;font-variant-numeric:normal"/>
   <path d="m71.4308 14.7284a1.17758 1.17758 0 0 1-1.17758 1.17758 1.17758 1.17758 0 0 1-1.17758-1.17758 1.17758 1.17758 0 0 1 1.17758-1.17758 1.17758 1.17758 0 0 1 1.17758 1.17758z" fill="#e2001a"/>
  </g>
 </g>
</svg>