<?xml version="1.0" encoding="UTF-8" standalone="no"?>
<svg
   width="98.7204mm"
   height="29.5391mm"
   version="1.1"
   viewBox="0 0 98.7204 29.5391"
   id="svg176"
   sodipodi:docname="gt4py-logo1-border-inkscape.svg"
   inkscape:version="1.2.2 (b0a8486541, 2022-12-01)"
   xml:space="preserve"
   xmlns:inkscape="http://www.inkscape.org/namespaces/inkscape"
   xmlns:sodipodi="http://sodipodi.sourceforge.net/DTD/sodipodi-0.dtd"
   xmlns:xlink="http://www.w3.org/1999/xlink"
   xmlns="http://www.w3.org/2000/svg"
   xmlns:svg="http://www.w3.org/2000/svg"
   xmlns:rdf="http://www.w3.org/1999/02/22-rdf-syntax-ns#"
   xmlns:cc="http://creativecommons.org/ns#"
   xmlns:dc="http://purl.org/dc/elements/1.1/"><defs
     id="defs180"><inkscape:perspective
       sodipodi:type="inkscape:persp3d"
       inkscape:vp_x="8.0321538 : 5.4107607 : 1"
       inkscape:vp_y="0 : 1000 : 0"
       inkscape:vp_z="106.75255 : 5.4107607 : 1"
       inkscape:persp3d-origin="57.392354 : 0.48757744 : 1"
       id="perspective12808" /><linearGradient
       id="linearGradient2795"><stop
         style="stop-color:#b8b8b8;stop-opacity:0.49803922;"
         offset="0"
         id="stop2797" /><stop
         style="stop-color:#7f7f7f;stop-opacity:0;"
         offset="1"
         id="stop2799" /></linearGradient><linearGradient
       id="linearGradient2787"><stop
         style="stop-color:#7f7f7f;stop-opacity:0.5;"
         offset="0"
         id="stop2789" /><stop
         style="stop-color:#7f7f7f;stop-opacity:0;"
         offset="1"
         id="stop2791" /></linearGradient><linearGradient
       id="linearGradient3676"><stop
         style="stop-color:#b2b2b2;stop-opacity:0.5;"
         offset="0"
         id="stop3678" /><stop
         style="stop-color:#b3b3b3;stop-opacity:0;"
         offset="1"
         id="stop3680" /></linearGradient><linearGradient
       id="linearGradient3236"><stop
         style="stop-color:#f4f4f4;stop-opacity:1"
         offset="0"
         id="stop3244" /><stop
         style="stop-color:white;stop-opacity:1"
         offset="1"
         id="stop3240" /></linearGradient><linearGradient
       id="linearGradient4671"><stop
         style="stop-color:#ffd43b;stop-opacity:1;"
         offset="0"
         id="stop4673" /><stop
         style="stop-color:#ffe873;stop-opacity:1"
         offset="1"
         id="stop4675" /></linearGradient><linearGradient
       id="linearGradient4689"><stop
         style="stop-color:#5a9fd4;stop-opacity:1;"
         offset="0"
         id="stop4691" /><stop
         style="stop-color:#306998;stop-opacity:1;"
         offset="1"
         id="stop4693" /></linearGradient><linearGradient
       x1="224.23996"
       y1="144.75717"
       x2="-65.308502"
       y2="144.75717"
       id="linearGradient2987"
       xlink:href="#linearGradient4671"
       gradientUnits="userSpaceOnUse"
       gradientTransform="translate(100.2702,99.61116)" /><linearGradient
       x1="172.94208"
       y1="77.475983"
       x2="26.670298"
       y2="76.313133"
       id="linearGradient2990"
       xlink:href="#linearGradient4689"
       gradientUnits="userSpaceOnUse"
       gradientTransform="translate(100.2702,99.61116)" /><linearGradient
       inkscape:collect="always"
       xlink:href="#linearGradient4671"
       id="linearGradient2255"
       gradientUnits="userSpaceOnUse"
       gradientTransform="matrix(0.562541,0,0,0.567972,-11.5974,-7.60954)"
       x1="224.23996"
       y1="144.75717"
       x2="-65.308502"
       y2="144.75717" /><linearGradient
       inkscape:collect="always"
       xlink:href="#linearGradient4689"
       id="linearGradient2258"
       gradientUnits="userSpaceOnUse"
       gradientTransform="matrix(0.562541,0,0,0.567972,-11.5974,-7.60954)"
       x1="172.94208"
       y1="76.176224"
       x2="26.670298"
       y2="76.313133" /><radialGradient
       inkscape:collect="always"
       xlink:href="#linearGradient2795"
       id="radialGradient2801"
       cx="61.518883"
       cy="132.28575"
       fx="61.518883"
       fy="132.28575"
       r="29.036913"
       gradientTransform="matrix(1,0,0,0.177966,0,108.7434)"
       gradientUnits="userSpaceOnUse" /></defs><sodipodi:namedview
     id="namedview178"
     pagecolor="#ffffff"
     bordercolor="#666666"
     borderopacity="1.0"
     inkscape:showpageshadow="2"
     inkscape:pageopacity="0.0"
     inkscape:pagecheckerboard="0"
     inkscape:deskcolor="#d1d1d1"
     inkscape:document-units="mm"
     showgrid="false"
     inkscape:zoom="3.6615945"
     inkscape:cx="199.50325"
     inkscape:cy="52.982382"
     inkscape:window-width="1856"
     inkscape:window-height="1131"
     inkscape:window-x="64"
     inkscape:window-y="32"
     inkscape:window-maximized="1"
     inkscape:current-layer="g172" /><metadata
     id="metadata108"><rdf:RDF><cc:Work
         rdf:about=""><dc:format>image/svg+xml</dc:format><dc:type
           rdf:resource="http://purl.org/dc/dcmitype/StillImage" /></cc:Work></rdf:RDF></metadata><g
     id="g172"
     transform="translate(-23.4911,-5.32356)"
     style="display:inline"
     inkscape:groupmode="layer"
     inkscape:label="Text"><g
       id="python"
       style="stroke:#000000;stroke-opacity:1"><path
         id="path52"
         style="fill:#ffda4b;fill-opacity:1;stroke-width:0.0485666;stroke:#000000;stroke-opacity:1"
         d="m 107.86995,28.247795 h -0.43267 V 26.57769 c 0,-0.169945 -0.0398,-0.316221 -0.11882,-0.438355 -0.0914,-0.138228 -0.21824,-0.207343 -0.38108,-0.207343 -0.19835,0 -0.4464,0.104619 -0.74416,0.313855 v 2.001948 h -0.43268 v -3.992061 l 0.43268,-0.136334 v 1.818273 c 0.27645,-0.201188 0.57847,-0.30202 0.90653,-0.30202 0.22912,0 0.41469,0.07716 0.5567,0.231012 0.14249,0.153851 0.2135,0.345572 0.2135,0.57469 z" /><path
         id="path46"
         style="fill:#306998;fill-opacity:1;stroke-width:0.0485666;stroke:#000000;stroke-opacity:1"
         d="m 100.41933,26.968707 c 0,-0.707238 -0.20166,-1.070325 -0.604982,-1.090207 -0.160478,-0.0076 -0.317168,0.01799 -0.469599,0.07716 -0.12166,0.04355 -0.203556,0.08663 -0.246634,0.130181 v 1.688093 c 0.257995,0.161897 0.487114,0.237165 0.686883,0.225331 0.422732,-0.02793 0.634332,-0.371134 0.634332,-1.03056 z m 0.49753,0.02935 c 0,0.3593 -0.0843,0.657533 -0.25373,0.894699 -0.18888,0.268409 -0.45066,0.406638 -0.785349,0.414213 -0.252314,0.008 -0.512203,-0.07101 -0.779666,-0.236693 v 1.534242 l -0.432674,-0.154323 v -3.405536 c 0.07101,-0.0871 0.162371,-0.161898 0.273143,-0.225331 0.257522,-0.150064 0.57043,-0.227226 0.938724,-0.231013 l 0.0062,0.0062 c 0.336572,-0.0043 0.595992,0.133969 0.778242,0.414212 0.16995,0.257049 0.25516,0.586525 0.25516,0.989376 z" /><path
         id="path48"
         style="fill:#306998;fill-opacity:1;stroke-width:0.0485666;stroke:#000000;stroke-opacity:1"
         d="m 103.56119,28.004948 c 0,0.481906 -0.0483,0.815643 -0.14485,1.00121 -0.0971,0.185567 -0.28167,0.333737 -0.55434,0.444036 -0.22107,0.0871 -0.46013,0.134441 -0.7167,0.142489 l -0.0715,-0.27267 c 0.26083,-0.0355 0.44451,-0.07101 0.55102,-0.106512 0.20971,-0.07101 0.35362,-0.179887 0.43267,-0.32569 0.0634,-0.118819 0.0947,-0.34557 0.0947,-0.681201 v -0.112666 c -0.29586,0.134442 -0.60593,0.201189 -0.9302,0.201189 -0.21302,0 -0.40096,-0.06675 -0.56286,-0.201189 -0.18178,-0.146276 -0.27267,-0.331843 -0.27267,-0.556701 v -1.800758 l 0.43268,-0.14817 v 1.812593 c 0,0.193614 0.0625,0.342731 0.18746,0.44735 0.12497,0.104618 0.28687,0.154796 0.48522,0.151009 0.19835,-0.0043 0.4109,-0.08095 0.6367,-0.231012 v -2.114613 h 0.43268 z" /><path
         id="path50"
         style="fill:#ffda4b;fill-opacity:1;stroke-width:0.0485666;stroke:#000000;stroke-opacity:1"
         d="m 105.25023,28.283298 c -0.0516,0.0043 -0.0989,0.0062 -0.14249,0.0062 -0.24474,0 -0.43551,-0.05823 -0.57185,-0.175153 -0.13586,-0.116926 -0.20402,-0.278351 -0.20402,-0.484273 v -1.704234 h -0.29634 v -0.272196 h 0.29634 v -0.72286 l 0.4322,-0.15385 v 0.87671 h 0.48616 v 0.272196 h -0.48616 v 1.692354 c 0,0.162371 0.0435,0.277403 0.13065,0.344624 0.0748,0.05539 0.19362,0.0871 0.35551,0.09515 z" /><path
         id="path54"
         style="fill:#ffda4b;fill-opacity:1;stroke-width:0.0485666;stroke:#000000;stroke-opacity:1"
         d="m 110.16966,26.900539 c 0,-0.271723 -0.0516,-0.496108 -0.15433,-0.673628 -0.12213,-0.216337 -0.31196,-0.330422 -0.56853,-0.342257 -0.47433,0.02746 -0.71103,0.367347 -0.71103,1.018725 0,0.298707 0.0492,0.548181 0.14864,0.748423 0.12687,0.255155 0.31717,0.381076 0.57091,0.376815 0.47622,-0.0038 0.71434,-0.379655 0.71434,-1.128078 z m 0.47386,0.0028 c 0,0.386756 -0.0989,0.708658 -0.29634,0.965707 -0.21729,0.287818 -0.51741,0.4322 -0.90038,0.4322 -0.37966,0 -0.67552,-0.144382 -0.88902,-0.4322 -0.19362,-0.257049 -0.29019,-0.578951 -0.29019,-0.965707 0,-0.36356 0.10462,-0.669367 0.31386,-0.918368 0.22107,-0.264149 0.51173,-0.396697 0.87103,-0.396697 0.3593,0 0.65185,0.132548 0.87718,0.396697 0.20924,0.249001 0.31386,0.554808 0.31386,0.918368 z" /><path
         id="path56"
         style="fill:#ffda4b;fill-opacity:1;stroke-width:0.0485666;stroke:#000000;stroke-opacity:1"
         d="m 113.12406,28.247795 h -0.43268 v -1.764781 c 0,-0.193615 -0.0582,-0.344625 -0.17468,-0.453504 -0.11645,-0.108405 -0.27172,-0.160952 -0.46534,-0.156691 -0.20545,0.0038 -0.40095,0.07101 -0.58652,0.201189 v 2.173787 h -0.43268 v -2.227279 c 0.24901,-0.181307 0.47812,-0.299654 0.68736,-0.355039 0.1974,-0.0516 0.37161,-0.07716 0.52167,-0.07716 0.10273,0 0.1993,0.0099 0.29019,0.02982 0.16994,0.03929 0.30817,0.112192 0.41468,0.219178 0.11882,0.118346 0.17799,0.260362 0.17799,0.42652 z" /></g><g
       aria-label="4"
       id="4-for"
       style="font-style:italic;font-size:9.87778px;font-family:'Fira Sans Condensed';-inkscape-font-specification:'Fira Sans Condensed,  Italic';display:inline;fill:#ababab;stroke-width:0.785087;fill-opacity:1"><path
         d="m 97.943328,28.19549 v -0.503767 h -0.790223 v -3.931356 l -0.740833,0.237066 -2.587978,4.198057 h 2.607733 v 2.242256 l 0.721078,-0.237067 V 28.19549 Z m -1.511301,-3.269545 v 2.765778 h -1.708855 z"
         style="font-style:normal;font-weight:500;font-family:Flux;-inkscape-font-specification:'Flux Medium';fill:#ababab;fill-opacity:1"
         id="path2185" /></g><path
       transform="translate(-8.12089,-1.96783)"
       d="m 69.9614,26.6917 v -5.56436 h -4.14488 v 1.77435 h 2.35634 c -0.141948,1.29173 -1.3627,2.14341 -2.62604,2.14341 -1.71757,0 -2.95252,-1.43367 -2.95252,-3.56289 0,-2.22858 1.093,-3.49192 2.89574,-3.49192 1.16397,0 2.05824,0.454232 2.46989,1.66079 h 2.00147 c -0.255506,-2.12922 -1.98727,-3.47772 -4.48556,-3.47772 -2.98091,0 -5.01076,2.11502 -5.01076,5.33724 0,3.13705 2.04405,5.35144 4.84043,5.35144 1.39109,0 2.32795,-0.496818 3.12286,-1.58982 l 0.255506,1.41948 z"
       style="font-variant-ligatures:normal;font-variant-caps:normal;font-variant-numeric:normal;font-feature-settings:normal"
       id="path152" /><path
       d="m 76.1552,20.9286 v -2.01566 c -0.113559,-0.0142 -0.184533,-0.0142 -0.241313,-0.0142 -0.908465,0 -1.70338,0.596181 -2.12922,1.6324 v -1.50465 h -1.98727 v 7.66519 h 1.98727 v -4.0739 c 0,-1.16397 0.581986,-1.74596 1.74596,-1.74596 0.212922,0 0.35487,0.0142 0.624572,0.05678 z"
       style="font-variant-ligatures:normal;font-variant-caps:normal;font-variant-numeric:normal;font-feature-settings:normal"
       id="path154"
       transform="translate(-8.12089,-1.96783)" /><path
       d="M 79.3585,26.6917 V 19.02651 H 77.37123 V 26.6917 Z"
       style="font-variant-ligatures:normal;font-variant-caps:normal;font-variant-numeric:normal;font-feature-settings:normal"
       id="path156"
       transform="translate(-8.12089,-1.96783)" /><path
       d="m 88.0932,26.6917 v -10.348 h -1.98727 v 3.67645 c -0.496817,-0.766519 -1.16397,-1.12139 -2.11502,-1.12139 -1.83113,0 -3.22222,1.66079 -3.22222,3.97454 0,2.1718 1.19236,3.94615 3.22222,3.94615 0.951052,0 1.61821,-0.354868 2.11502,-1.00783 v 0.880077 z m -1.98727,-3.79001 c 0,1.39109 -0.68135,2.25697 -1.67498,2.25697 -0.993636,0 -1.67499,-0.880077 -1.67499,-2.28536 0,-1.41948 0.68135,-2.31375 1.67499,-2.31375 1.00783,0 1.67498,0.880077 1.67498,2.34214 z"
       style="font-variant-ligatures:normal;font-variant-caps:normal;font-variant-numeric:normal;font-feature-settings:normal"
       id="path158"
       transform="translate(-8.12089,-1.96783)" /><path
       d="M 97.5232,18.118 V 16.34365 H 89.23344 V 18.118 h 3.13705 v 8.57366 h 2.12922 V 18.118 Z"
       style="font-variant-ligatures:normal;font-variant-caps:normal;font-variant-numeric:normal;font-feature-settings:normal"
       id="path160"
       transform="translate(-8.12089,-1.96783)" /><path
       d="m 104.736,22.9158 c 0,-2.59765 -1.40529,-4.01713 -3.80421,-4.01713 -2.34214,0 -3.77581,1.44787 -3.77581,3.96035 0,2.52667 1.43367,3.96035 3.79001,3.96035 2.32794,0 3.79001,-1.44787 3.79001,-3.90357 z m -1.98727,-0.02839 c 0,1.43367 -0.73813,2.32795 -1.80274,2.32795 -1.07881,0 -1.80274,-0.894272 -1.80274,-2.35634 0,-1.46206 0.723935,-2.35634 1.80274,-2.35634 1.093,0 1.80274,0.880077 1.80274,2.38473 z"
       style="font-variant-ligatures:normal;font-variant-caps:normal;font-variant-numeric:normal;font-feature-settings:normal"
       id="path162"
       transform="translate(-8.12089,-1.96783)" /><path
       d="m 113.413,22.9158 c 0,-2.59765 -1.40528,-4.01713 -3.8042,-4.01713 -2.34214,0 -3.77582,1.44787 -3.77582,3.96035 0,2.52667 1.43368,3.96035 3.79001,3.96035 2.32795,0 3.79001,-1.44787 3.79001,-3.90357 z m -1.98727,-0.02839 c 0,1.43367 -0.73813,2.32795 -1.80274,2.32795 -1.0788,0 -1.80273,-0.894272 -1.80273,-2.35634 0,-1.46206 0.72393,-2.35634 1.80273,-2.35634 1.093,0 1.80274,0.880077 1.80274,2.38473 z"
       style="font-variant-ligatures:normal;font-variant-caps:normal;font-variant-numeric:normal;font-feature-settings:normal"
       id="path164"
       transform="translate(-8.12089,-1.96783)" /><path
       d="m 116.953,26.6917 v -10.348 h -1.98727 v 10.348 z"
       style="font-variant-ligatures:normal;font-variant-caps:normal;font-variant-numeric:normal;font-feature-settings:normal"
       id="path166"
       transform="translate(-8.12089,-1.96783)" /><path
       d="m 125.332,24.4205 v -0.09936 c 0,-0.880077 -0.49682,-1.53304 -1.50464,-1.83113 l -2.51248,-0.723934 c -0.5536,-0.156143 -0.69555,-0.283896 -0.69555,-0.596182 0,-0.425844 0.45424,-0.709739 1.14978,-0.709739 0.95105,0 1.41948,0.340675 1.43367,1.03622 h 1.9163 c -0.0284,-1.6182 -1.27753,-2.59765 -3.33578,-2.59765 -1.94468,0 -3.15124,0.979441 -3.15124,2.55506 0,0.936857 0.25551,1.44787 1.67499,1.88791 l 2.37053,0.73813 c 0.49681,0.156142 0.66715,0.312284 0.66715,0.525206 0,0.468428 -0.5536,0.652961 -1.47626,0.652961 -0.90846,0 -1.39109,-0.170337 -1.56142,-0.993636 h -1.94469 c 0.0568,1.67499 1.29173,2.55506 3.61967,2.55506 2.15761,0 3.34997,-0.851688 3.34997,-2.39892 z"
       style="font-variant-ligatures:normal;font-variant-caps:normal;font-variant-numeric:normal;font-feature-settings:normal"
       id="path168"
       transform="translate(-8.12089,-1.96783)" /><path
       d="m 71.4308,14.7284 a 1.17758,1.17758 0 0 1 -1.17758,1.17758 1.17758,1.17758 0 0 1 -1.17758,-1.17758 1.17758,1.17758 0 0 1 1.17758,-1.17758 1.17758,1.17758 0 0 1 1.17758,1.17758 z"
       fill="#e2001a"
       id="path170"
       style="display:inline" /></g><g
     inkscape:groupmode="layer"
     id="layer2"
     inkscape:label="Logo"
     style="display:inline"><g
       id="diamond"
       style="display:inline;stroke:#d1d1d1;stroke-width:1;stroke-dasharray:none;stroke-opacity:1"
       transform="translate(-23.4911,-5.3235601)"><path
         style="fill:none;stroke:#d1d1d1;stroke-width:1;stroke-linecap:butt;stroke-linejoin:miter;stroke-dasharray:none;stroke-opacity:1"
         d="M 37.08507,15.70569 33.87342,21.2687"
         id="path12976" /><path
         style="fill:none;stroke:#d1d1d1;stroke-width:1;stroke-linecap:butt;stroke-linejoin:miter;stroke-dasharray:none;stroke-opacity:1"
         d="M 33.873382,21.26868 39.4362,24.4804"
         id="path12978" /><path
         style="fill:none;stroke:#d1d1d1;stroke-width:1;stroke-linecap:butt;stroke-linejoin:miter;stroke-dasharray:none;stroke-opacity:1"
         d="M 39.43628,24.480527 42.648,18.9176"
         id="path12980" /><path
         style="fill:none;stroke:#d1d1d1;stroke-width:1;stroke-linecap:butt;stroke-linejoin:miter;stroke-dasharray:none;stroke-opacity:1"
         d="M 42.648,18.9176 37.08507,15.70569"
         id="path12982" /><path
         style="fill:none;stroke:#d1d1d1;stroke-width:1;stroke-linecap:butt;stroke-linejoin:miter;stroke-dasharray:none;stroke-opacity:1"
         d="m 42.648,18.9176 -8.77458,2.3511"
         id="path13005" /><path
         style="fill:none;stroke:#d1d1d1;stroke-width:1;stroke-linecap:butt;stroke-linejoin:miter;stroke-dasharray:none;stroke-opacity:1"
         d="M 37.08507,15.70569 39.4362,24.4804"
         id="path13018" /></g><path
       d="m 9.2066769,11.557701 8.7745861,-2.3511425 2.35121,8.7748365 -8.774586,2.351144 z"
       fill="none"
       stroke="#d1d1d1"
       id="path110"
       style="fill:none;stroke:#d1d1d1;stroke-opacity:1" /><path
       d="M 19.118769,8.9019652 A 1.17758,1.17758 0 0 1 18.286094,10.3442 1.17758,1.17758 0 0 1 16.843859,9.5115255 1.17758,1.17758 0 0 1 17.676534,8.0692904 1.17758,1.17758 0 0 1 19.118769,8.9019652 Z"
       fill="#e2001a"
       id="path112"
       style="fill:#306998;fill-opacity:1" /><circle
       transform="rotate(-15)"
       cx="5.9016142"
       cy="13.54674"
       r="1.17758"
       fill="#e2001a"
       id="circle114"
       style="fill:#4482b4;fill-opacity:1" /><circle
       transform="rotate(-15)"
       cx="5.9016142"
       cy="22.63114"
       r="1.17758"
       fill="#e2001a"
       id="circle116"
       style="fill:#ffe66e;fill-opacity:1" /><circle
       transform="rotate(-15)"
       cx="14.985715"
       cy="22.63114"
       r="1.17758"
       fill="#e2001a"
       id="circle118"
       style="fill:#ffd743;fill-opacity:1" /><path
       d="m 12.4184,5.99484 1.17557,4.38729"
       fill="none"
       stroke="#d1d1d1"
       id="path124"
       style="stroke:#c2d3e0;stroke-opacity:1" /><path
       d="m 5.9949,17.12074 4.38742,-1.1756"
       fill="none"
       stroke="#d1d1d1"
       id="path126"
       style="stroke:#c2d3e0;stroke-opacity:1" /><path
       d="m 15.9451,19.15684 1.1756,4.38742"
       fill="none"
       stroke="#d1d1d1"
       id="path128"
       style="stroke:#efe2b3;stroke-opacity:1" /><circle
       transform="rotate(-15)"
       cx="10.443614"
       cy="27.173241"
       r="0.99486202"
       fill="#e2001a"
       id="circle130"
       style="fill:#ffd43b;fill-opacity:1" /><path
       d="m 19.1569,13.59404 4.38742,-1.1756"
       fill="none"
       stroke="#d1d1d1"
       id="path132"
       style="stroke:#efe2b3;stroke-opacity:1" /><circle
       transform="rotate(-15)"
       cx="10.443614"
       cy="9.0047398"
       r="0.99486202"
       fill="#e2001a"
       id="circle134"
       style="fill:#4280b2;fill-opacity:1" /><circle
       transform="rotate(-15)"
       cx="1.3594143"
       cy="18.08894"
       r="0.99486202"
       fill="#e2001a"
       id="circle136"
       style="fill:#4584b6;fill-opacity:1" /><circle
       transform="rotate(-15)"
       cx="19.527916"
       cy="18.08894"
       r="0.99486202"
       fill="#e2001a"
       id="circle138"
       style="fill:#ffda4b;fill-opacity:1" /><path
       d="m 15.005856,10.004017 a 1.46164,1.46164 0 0 1 -1.033535,1.790136 1.46164,1.46164 0 0 1 -1.790136,-1.033536 1.46164,1.46164 0 0 1 1.033535,-1.7901359 1.46164,1.46164 0 0 1 1.790136,1.0335359 z"
       fill="#e2001a"
       id="path140"
       style="fill:#3975a6;fill-opacity:1" /><circle
       transform="rotate(-15)"
       cx="5.9016142"
       cy="18.08894"
       r="1.46164"
       fill="#e2001a"
       id="circle142"
       style="fill:#3b77a8;fill-opacity:1" /><circle
       transform="rotate(-15)"
       cx="10.443614"
       cy="22.63114"
       r="1.46164"
       fill="#e2001a"
       id="circle144"
       style="fill:#ffdf5a;fill-opacity:1" /><circle
       transform="rotate(-15)"
       cx="14.985715"
       cy="18.08894"
       r="1.46164"
       fill="#e2001a"
       id="circle146"
       style="fill:#ffe262;fill-opacity:1" /><path
       d="m 15.947147,14.811928 a 1.17758,1.17758 0 0 1 -1.17758,1.17758 1.17758,1.17758 0 0 1 -1.17758,-1.17758 1.17758,1.17758 0 0 1 1.17758,-1.17758 1.17758,1.17758 0 0 1 1.17758,1.17758 z"
       fill="#e2001a"
       id="path170-7"
       style="display:inline" /></g></svg>
