<?xml version="1.0" encoding="UTF-8" standalone="no"?>
<!-- Created with Inkscape (http://www.inkscape.org/) -->

<svg
   xmlns:dc="http://purl.org/dc/elements/1.1/"
   xmlns:cc="http://creativecommons.org/ns#"
   xmlns:rdf="http://www.w3.org/1999/02/22-rdf-syntax-ns#"
   xmlns:svg="http://www.w3.org/2000/svg"
   xmlns="http://www.w3.org/2000/svg"
   xmlns:sodipodi="http://sodipodi.sourceforge.net/DTD/sodipodi-0.dtd"
   xmlns:inkscape="http://www.inkscape.org/namespaces/inkscape"
   version="1.0"
   width="790.42346"
   height="255.00531"
   id="svg2"
   sodipodi:version="0.32"
   inkscape:version="0.47 r22583"
   sodipodi:docname="Logo_der_Schweizerischen_Eidgenossenschaft.svg"
   inkscape:output_extension="org.inkscape.output.svg.inkscape">
  <metadata
     id="metadata231">
    <rdf:RDF>
      <cc:Work
         rdf:about="">
        <dc:format>image/svg+xml</dc:format>
        <dc:type
           rdf:resource="http://purl.org/dc/dcmitype/StillImage" />
      </cc:Work>
    </rdf:RDF>
  </metadata>
  <sodipodi:namedview
     inkscape:window-height="749"
     inkscape:window-width="1366"
     inkscape:pageshadow="2"
     inkscape:pageopacity="0.0"
     guidetolerance="10.0"
     gridtolerance="10.0"
     objecttolerance="10.0"
     borderopacity="1.0"
     bordercolor="#666666"
     pagecolor="#ffffff"
     id="base"
     showgrid="false"
     inkscape:zoom="0.68823868"
     inkscape:cx="395.21173"
     inkscape:cy="90.460025"
     inkscape:window-x="-4"
     inkscape:window-y="-4"
     inkscape:current-layer="svg2"
     inkscape:window-maximized="0" />
  <defs
     id="defs4">
    <inkscape:perspective
       sodipodi:type="inkscape:persp3d"
       inkscape:vp_x="0 : 127.50266 : 1"
       inkscape:vp_y="0 : 1000 : 0"
       inkscape:vp_z="790.42346 : 127.50266 : 1"
       inkscape:persp3d-origin="395.21173 : 85.00177 : 1"
       id="perspective233" />
    <clipPath
       id="clipPath2670">
      <path
         d="M 0,56.69293 L 0,0 L 171.16299,0 L 171.16299,56.69293"
         id="path2672" />
    </clipPath>
    <clipPath
       id="clipPath2662">
      <path
         d="M -85.5459,-28.34645 L -85.5459,28.34645 L 85.5459,28.34645 L 85.5459,-28.34645 L -85.5459,-28.34645 z"
         id="path2664" />
    </clipPath>
    <clipPath
       id="clipPath2650">
      <path
         d="M 0,56.69293 L 0,0 L 171.149,0 L 171.149,56.69293"
         id="path2652" />
    </clipPath>
    <clipPath
       id="clipPath2642">
      <path
         d="M -85.5806,-28.34645 L -85.5806,28.34645 L 85.5806,28.34645 L 85.5806,-28.34645 L -85.5806,-28.34645 z"
         id="path2644" />
    </clipPath>
    <clipPath
       id="clipPath2606">
      <path
         d="M 0,56.69382 L 0,0 L 459.21298,0 L 459.21298,56.69382"
         id="path2608" />
    </clipPath>
    <clipPath
       id="clipPath2594">
      <path
         d="M -229.60645,-28.34695 L -229.60645,28.34695 L 190.96048,28.34695 L 190.96048,-28.34695 L -229.60645,-28.34695 z"
         id="path2596" />
    </clipPath>
    <clipPath
       id="clipPath2582">
      <path
         d="M 0,56.69382 L 0,0 L 459.21298,0 L 459.21298,56.69382"
         id="path2584" />
    </clipPath>
    <clipPath
       id="clipPath2570">
      <path
         d="M -229.60645,-28.34695 L -229.60645,28.34695 L 190.96048,28.34695 L 190.96048,-28.34695 L -229.60645,-28.34695 z"
         id="path2572" />
    </clipPath>
    <clipPath
       id="clipPath2560">
      <path
         d="M 0,56.69293 L 0,0 L 459.21298,0 L 459.21298,56.69293"
         id="path2562" />
    </clipPath>
    <clipPath
       id="clipPath2548">
      <path
         d="M -229.60645,-28.34695 L -229.60645,28.34695 L 190.96048,28.34695 L 190.96048,-28.34695 L -229.60645,-28.34695 z"
         id="path2550" />
    </clipPath>
    <clipPath
       id="clipPath2538">
      <path
         d="M 0,56.69382 L 0,0 L 459.21298,0 L 459.21298,56.69382"
         id="path2540" />
    </clipPath>
    <clipPath
       id="clipPath2526">
      <path
         d="M -229.60645,-28.34695 L -229.60645,28.34695 L 190.96048,28.34695 L 190.96048,-28.34695 L -229.60645,-28.34695 z"
         id="path2528" />
    </clipPath>
    <clipPath
       id="clipPath2398">
      <path
         d="M 0,0 L 841.88971,0 L 841.88971,595.27557 L 0,595.27557 L 0,0 z"
         id="path2400" />
    </clipPath>
    <clipPath
       id="clipPath7455">
      <path
         d="M 277.94922,494.22852 L 433.93942,494.22852 L 433.93942,532.57373 L 277.94922,532.57373 L 277.94922,494.22852 z"
         id="path7457" />
    </clipPath>
    <clipPath
       id="clipPath7447">
      <path
         d="M 277.94922,494.22852 L 433.93942,494.22852 L 433.93942,532.57373 L 277.94922,532.57373 L 277.94922,494.22852 z"
         id="path7449" />
    </clipPath>
    <clipPath
       id="clipPath7439">
      <path
         d="M 285.21716,414.85422 L 285.21716,446.08591 L 398.92474,445.86047 L 398.92474,414.62875 L 285.21716,414.85422 z"
         id="path7441" />
    </clipPath>
    <clipPath
       id="clipPath7239">
      <path
         d="M 277.94922,494.22852 L 433.93942,494.22852 L 433.93942,532.57373 L 277.94922,532.57373 L 277.94922,494.22852 z"
         id="path7241" />
    </clipPath>
    <clipPath
       id="clipPath7231">
      <path
         d="M 277.94922,494.22852 L 433.93942,494.22852 L 433.93942,532.57373 L 277.94922,532.57373 L 277.94922,494.22852 z"
         id="path7233" />
    </clipPath>
    <clipPath
       id="clipPath7223">
      <path
         d="M 285.21716,414.85422 L 285.21716,446.08591 L 398.92474,445.86047 L 398.92474,414.62875 L 285.21716,414.85422 z"
         id="path7225" />
    </clipPath>
    <clipPath
       id="clipPath7023">
      <path
         d="M 277.94922,494.22852 L 433.93942,494.22852 L 433.93942,532.57373 L 277.94922,532.57373 L 277.94922,494.22852 z"
         id="path7025" />
    </clipPath>
    <clipPath
       id="clipPath7015">
      <path
         d="M 277.94922,494.22852 L 433.93942,494.22852 L 433.93942,532.57373 L 277.94922,532.57373 L 277.94922,494.22852 z"
         id="path7017" />
    </clipPath>
    <clipPath
       id="clipPath7007">
      <path
         d="M 285.21716,425.37146 L 285.21716,456.60318 L 398.92474,456.37769 L 398.92474,425.14603 L 285.21716,425.37146 z"
         id="path7009" />
    </clipPath>
    <clipPath
       id="clipPath6807">
      <path
         d="M 277.94922,494.22852 L 433.93942,494.22852 L 433.93942,532.57373 L 277.94922,532.57373 L 277.94922,494.22852 z"
         id="path6809" />
    </clipPath>
    <clipPath
       id="clipPath6799">
      <path
         d="M 277.94922,494.22852 L 433.93942,494.22852 L 433.93942,532.57373 L 277.94922,532.57373 L 277.94922,494.22852 z"
         id="path6801" />
    </clipPath>
    <clipPath
       id="clipPath6791">
      <path
         d="M 285.21716,414.85422 L 285.21716,446.08591 L 398.92474,445.86047 L 398.92474,414.62875 L 285.21716,414.85422 z"
         id="path6793" />
    </clipPath>
    <clipPath
       id="clipPath6591">
      <path
         d="M 277.94922,494.22852 L 433.93942,494.22852 L 433.93942,532.57373 L 277.94922,532.57373 L 277.94922,494.22852 z"
         id="path6593" />
    </clipPath>
    <clipPath
       id="clipPath6583">
      <path
         d="M 277.94922,494.22852 L 433.93942,494.22852 L 433.93942,532.57373 L 277.94922,532.57373 L 277.94922,494.22852 z"
         id="path6585" />
    </clipPath>
    <clipPath
       id="clipPath6575">
      <path
         d="M 285.21716,425.37146 L 285.21716,456.60318 L 398.92474,456.37769 L 398.92474,425.14603 L 285.21716,425.37146 z"
         id="path6577" />
    </clipPath>
    <clipPath
       id="clipPath6375">
      <path
         d="M -140.48418,-86.21886 L -140.48418,-58.62947 L -28.24937,-58.62947 L -28.24937,-86.21886 L -140.48418,-86.21886 z"
         id="path6377" />
    </clipPath>
    <clipPath
       id="clipPath6175">
      <path
         d="M -140.48418,-74.93864 L -140.48418,-47.34926 L -28.24937,-47.34926 L -28.24937,-74.93864 L -140.48418,-74.93864 z"
         id="path6177" />
    </clipPath>
    <clipPath
       id="clipPath5975">
      <path
         d="M -140.48418,-63.34387 L -140.48418,-35.75447 L -28.24937,-35.75447 L -28.24937,-63.34387 L -140.48418,-63.34387 z"
         id="path5977" />
    </clipPath>
    <clipPath
       id="clipPath5775">
      <path
         d="M -140.48418,-52.06366 L -140.48418,-24.47427 L -28.24937,-24.47427 L -28.24937,-52.06366 L -140.48418,-52.06366 z"
         id="path5777" />
    </clipPath>
    <clipPath
       id="clipPath5575">
      <path
         d="M -140.48418,-40.73978 L -140.48418,-13.15039 L -28.24937,-13.15039 L -28.24937,-40.73978 L -140.48418,-40.73978 z"
         id="path5577" />
    </clipPath>
    <clipPath
       id="clipPath5289">
      <path
         d="M 277.36963,494.22943 L 433.94919,494.22943 L 433.94919,533.1806 L 277.36963,533.1806 L 277.36963,494.22943 z"
         id="path5291" />
    </clipPath>
    <clipPath
       id="clipPath5281">
      <path
         d="M 277.36963,494.22943 L 433.94919,494.22943 L 433.94919,533.1806 L 277.36963,533.1806 L 277.36963,494.22943 z"
         id="path5283" />
    </clipPath>
    <clipPath
       id="clipPath5273">
      <path
         d="M 299.3381,498.9791 L 299.3381,528.67041 L 412.15704,528.78687 L 412.15704,499.09558 L 299.3381,498.9791 z"
         id="path5275" />
    </clipPath>
    <clipPath
       id="clipPath5073">
      <path
         d="M 277.36963,494.22943 L 433.94919,494.22943 L 433.94919,533.1806 L 277.36963,533.1806 L 277.36963,494.22943 z"
         id="path5075" />
    </clipPath>
    <clipPath
       id="clipPath5065">
      <path
         d="M 277.36963,494.22943 L 433.94919,494.22943 L 433.94919,533.1806 L 277.36963,533.1806 L 277.36963,494.22943 z"
         id="path5067" />
    </clipPath>
    <clipPath
       id="clipPath5057">
      <path
         d="M 299.04822,494.22943 L 299.04822,533.1806 L 412.43402,533.1806 L 412.43402,494.22943 L 299.04822,494.22943 z"
         id="path5059" />
    </clipPath>
    <clipPath
       id="clipPath4857">
      <path
         d="M 277.94922,494.22852 L 433.93942,494.22852 L 433.93942,532.57373 L 277.94922,532.57373 L 277.94922,494.22852 z"
         id="path4859" />
    </clipPath>
    <clipPath
       id="clipPath4849">
      <path
         d="M 277.94922,494.22852 L 433.93942,494.22852 L 433.93942,532.57373 L 277.94922,532.57373 L 277.94922,494.22852 z"
         id="path4851" />
    </clipPath>
    <clipPath
       id="clipPath4841">
      <path
         d="M 254.58467,393.72018 L 254.58467,424.9519 L 366.84927,425.10739 L 366.84927,393.80203 L 254.58467,393.72018 z"
         id="path4843" />
    </clipPath>
    <clipPath
       id="clipPath4641">
      <path
         d="M 277.94922,494.22852 L 433.93942,494.22852 L 433.93942,532.57373 L 277.94922,532.57373 L 277.94922,494.22852 z"
         id="path4643" />
    </clipPath>
    <clipPath
       id="clipPath4633">
      <path
         d="M 277.94922,494.22852 L 433.93942,494.22852 L 433.93942,532.57373 L 277.94922,532.57373 L 277.94922,494.22852 z"
         id="path4635" />
    </clipPath>
    <clipPath
       id="clipPath4625">
      <path
         d="M 254.58467,393.72018 L 254.58467,424.9519 L 366.84927,425.10739 L 366.84927,393.80203 L 254.58467,393.72018 z"
         id="path4627" />
    </clipPath>
    <clipPath
       id="clipPath4425">
      <path
         d="M 277.94922,494.22852 L 433.93942,494.22852 L 433.93942,532.57373 L 277.94922,532.57373 L 277.94922,494.22852 z"
         id="path4427" />
    </clipPath>
    <clipPath
       id="clipPath4417">
      <path
         d="M 277.94922,494.22852 L 433.93942,494.22852 L 433.93942,532.57373 L 277.94922,532.57373 L 277.94922,494.22852 z"
         id="path4419" />
    </clipPath>
    <clipPath
       id="clipPath4409">
      <path
         d="M 254.58467,404.23743 L 254.58467,435.46915 L 366.84927,435.62463 L 366.84927,404.31924 L 254.58467,404.23743 z"
         id="path4411" />
    </clipPath>
    <clipPath
       id="clipPath4209">
      <path
         d="M 277.94922,494.22852 L 433.93942,494.22852 L 433.93942,532.57373 L 277.94922,532.57373 L 277.94922,494.22852 z"
         id="path4211" />
    </clipPath>
    <clipPath
       id="clipPath4201">
      <path
         d="M 277.94922,494.22852 L 433.93942,494.22852 L 433.93942,532.57373 L 277.94922,532.57373 L 277.94922,494.22852 z"
         id="path4203" />
    </clipPath>
    <clipPath
       id="clipPath4193">
      <path
         d="M 254.58467,414.75467 L 254.58467,445.98636 L 366.84927,446.14188 L 366.84927,414.83646 L 254.58467,414.75467 z"
         id="path4195" />
    </clipPath>
    <clipPath
       id="clipPath3993">
      <path
         d="M 277.94922,494.22852 L 433.93942,494.22852 L 433.93942,532.57373 L 277.94922,532.57373 L 277.94922,494.22852 z"
         id="path3995" />
    </clipPath>
    <clipPath
       id="clipPath3985">
      <path
         d="M 277.94922,494.22852 L 433.93942,494.22852 L 433.93942,532.57373 L 277.94922,532.57373 L 277.94922,494.22852 z"
         id="path3987" />
    </clipPath>
    <clipPath
       id="clipPath3977">
      <path
         d="M 254.58467,425.27191 L 254.58467,456.5036 L 366.84927,456.65909 L 366.84927,425.3537 L 254.58467,425.27191 z"
         id="path3979" />
    </clipPath>
    <clipPath
       id="clipPath3959">
      <path
         d="M 0,38.34531 L 0,0 L 155.99098,0 L 155.99098,38.34531"
         id="path3961" />
    </clipPath>
    <clipPath
       id="clipPath3769">
      <path
         d="M 16.89909,-92.63908 L 16.89909,-64.12952 L 128.95235,-64.12952 L 128.95235,-92.63908 L 16.89909,-92.63908 z"
         id="path3771" />
    </clipPath>
    <clipPath
       id="clipPath3751">
      <path
         d="M 0,38.34531 L 0,0 L 155.99098,0 L 155.99098,38.34531"
         id="path3753" />
    </clipPath>
    <clipPath
       id="clipPath3561">
      <path
         d="M 16.89909,-81.35887 L 16.89909,-52.8493 L 128.95235,-52.8493 L 128.95235,-81.35887 L 16.89909,-81.35887 z"
         id="path3563" />
    </clipPath>
    <clipPath
       id="clipPath3543">
      <path
         d="M 0,38.34531 L 0,0 L 155.99098,0 L 155.99098,38.34531"
         id="path3545" />
    </clipPath>
    <clipPath
       id="clipPath3353">
      <path
         d="M 16.89909,-69.76408 L 16.89909,-41.25452 L 128.95235,-41.25452 L 128.95235,-69.76408 L 16.89909,-69.76408 z"
         id="path3355" />
    </clipPath>
    <clipPath
       id="clipPath3335">
      <path
         d="M 0,38.34531 L 0,0 L 155.99098,0 L 155.99098,38.34531"
         id="path3337" />
    </clipPath>
    <clipPath
       id="clipPath3145">
      <path
         d="M 16.89909,-58.48389 L 16.89909,-29.97432 L 128.95235,-29.97432 L 128.95235,-58.48389 L 16.89909,-58.48389 z"
         id="path3147" />
    </clipPath>
    <clipPath
       id="clipPath3127">
      <path
         d="M 0,38.34531 L 0,0 L 155.99098,0 L 155.99098,38.34531"
         id="path3129" />
    </clipPath>
    <clipPath
       id="clipPath2937">
      <path
         d="M 16.89909,-47.16 L 16.89909,-18.65044 L 128.95235,-18.65044 L 128.95235,-47.16 L 16.89909,-47.16 z"
         id="path2939" />
    </clipPath>
    <clipPath
       id="clipPath2915">
      <path
         d="M 0,0 L 841.88971,0 L 841.88971,595.27557 L 0,595.27557 L 0,0 z"
         id="path2917" />
    </clipPath>
    <inkscape:perspective
       id="perspective2708"
       inkscape:persp3d-origin="372.04724 : 350.78739 : 1"
       inkscape:vp_z="744.09448 : 526.18109 : 1"
       inkscape:vp_y="0 : 1000 : 0"
       inkscape:vp_x="0 : 526.18109 : 1"
       sodipodi:type="inkscape:persp3d" />
  </defs>
  <path
     style="fill:#000000;fill-opacity:1;fill-rule:nonzero;stroke:none"
     id="path2943"
     d="M 174.91859,69.18314 C 176.31998,70.07297 177.95979,70.58469 180.18222,70.58469 C 183.123,70.58469 185.55009,69.08067 185.55009,65.69716 C 185.55009,61.01206 174.60924,60.43131 174.60924,54.17586 C 174.60924,50.34721 177.95979,47.95355 182.16628,47.95355 C 183.32771,47.95355 185.20748,48.12469 186.84956,48.73888 L 186.47301,50.89436 C 185.41437,50.31163 183.73716,50.00468 182.13083,50.00468 C 179.67053,50.00468 176.96971,51.03022 176.96971,54.10689 C 176.96971,58.89425 187.90834,58.92759 187.90834,65.90184 C 187.90834,70.72244 183.77287,72.63577 180.07962,72.63577 C 177.75513,72.63577 175.94415,72.15744 174.67849,71.61023 L 174.91859,69.18314" />
  <path
     style="fill:#000000;fill-opacity:1;fill-rule:nonzero;stroke:none"
     id="path2945"
     d="M 206.43723,57.11458 C 205.27598,56.60291 203.87445,56.22679 202.71084,56.22679 C 198.50645,56.22679 196.1461,59.27007 196.1461,63.50813 C 196.1461,67.47464 198.5398,70.79157 202.47075,70.79157 C 203.83888,70.79157 205.10454,70.48233 206.40401,70.00405 L 206.60853,72.02179 C 205.13794,72.53341 203.76962,72.63577 202.13036,72.63577 C 196.52193,72.63577 193.78772,68.36228 193.78772,63.50813 C 193.78772,58.14007 197.24051,54.38049 202.40372,54.38049 C 204.4882,54.38049 205.99219,54.85878 206.60853,55.06345 L 206.43723,57.11458" />
  <path
     style="fill:#000000;fill-opacity:1;fill-rule:nonzero;stroke:none"
     id="path2947"
     d="M 212.93326,46.58539 L 215.08644,46.58539 L 215.08644,57.73076 L 215.1557,57.73076 C 216.07861,55.81763 218.02727,54.38049 220.59004,54.38049 C 225.27496,54.38049 226.53895,57.49274 226.53895,61.79963 L 226.53895,72.22646 L 224.38522,72.22646 L 224.38522,61.83287 C 224.38522,58.82528 223.80487,56.22679 220.24966,56.22679 C 216.42136,56.22679 215.08644,59.85071 215.08644,62.89399 L 215.08644,72.22646 L 212.93326,72.22646 L 212.93326,46.58539" />
  <path
     style="fill:#000000;fill-opacity:1;fill-rule:nonzero;stroke:none"
     id="path2949"
     d="M 252.52246,72.22646 L 249.9242,72.22646 L 245.17212,57.15017 L 245.10332,57.15017 L 240.35138,72.22646 L 237.75317,72.22646 L 232.14696,54.7898 L 234.50508,54.7898 L 239.08585,69.86819 L 239.15451,69.86819 L 244.00892,54.7898 L 246.60731,54.7898 L 251.22339,69.86819 L 251.29,69.86819 L 256.11074,54.7898 L 258.26433,54.7898 L 252.52246,72.22646" />
  <path
     style="fill:#000000;fill-opacity:1;fill-rule:nonzero;stroke:none"
     id="path2951"
     d="M 274.5039,62.27791 C 274.5039,59.23464 273.27382,56.22679 270.06141,56.22679 C 266.88029,56.22679 264.93168,59.40593 264.93168,62.27791 L 274.5039,62.27791 z M 275.56505,71.67916 C 274.06142,72.29544 272.11244,72.63577 270.50416,72.63577 C 264.72675,72.63577 262.57343,68.73825 262.57343,63.50813 C 262.57343,58.17571 265.5144,54.38049 269.92327,54.38049 C 274.84656,54.38049 276.86434,58.347 276.86434,63.02985 L 276.86434,64.12436 L 264.93168,64.12436 C 264.93168,67.81726 266.91583,70.79157 270.67551,70.79157 C 272.24826,70.79157 274.53944,70.14184 275.56505,69.49237 L 275.56505,71.67916" />
  <path
     style="fill:#000000;fill-opacity:1;fill-rule:nonzero;stroke:none"
     id="path2953"
     d="M 283.63155,54.7898 L 285.78505,54.7898 L 285.78505,72.22646 L 283.63155,72.22646 L 283.63155,54.7898 z M 285.78505,50.14034 L 283.63155,50.14034 L 283.63155,47.27044 L 285.78505,47.27044 L 285.78505,50.14034" />
  <path
     style="fill:#000000;fill-opacity:1;fill-rule:nonzero;stroke:none"
     id="path2955"
     d="M 292.28337,70.41545 L 302.7791,56.6363 L 292.6925,56.6363 L 292.6925,54.7898 L 305.27262,54.7898 L 305.27262,56.6363 L 294.77912,70.38002 L 305.27262,70.38002 L 305.27262,72.22646 L 292.28337,72.22646 L 292.28337,70.41545" />
  <path
     style="fill:#000000;fill-opacity:1;fill-rule:nonzero;stroke:none"
     id="path2957"
     d="M 322.36458,62.27791 C 322.36458,59.23464 321.1344,56.22679 317.92199,56.22679 C 314.74096,56.22679 312.79194,59.40593 312.79194,62.27791 L 322.36458,62.27791 z M 323.42572,71.67916 C 321.92164,72.29544 319.97307,72.63577 318.36483,72.63577 C 312.58733,72.63577 310.43369,68.73825 310.43369,63.50813 C 310.43369,58.17571 313.37507,54.38049 317.78389,54.38049 C 322.70724,54.38049 324.72501,58.347 324.72501,63.02985 L 324.72501,64.12436 L 312.79194,64.12436 C 312.79194,67.81726 314.7765,70.79157 318.5361,70.79157 C 320.10893,70.79157 322.40007,70.14184 323.42572,69.49237 L 323.42572,71.67916" />
  <path
     style="fill:#000000;fill-opacity:1;fill-rule:nonzero;stroke:none"
     id="path2959"
     d="M 331.49441,58.68738 C 331.49441,56.7742 331.49441,56.0556 331.35864,54.7898 L 333.51228,54.7898 L 333.51228,58.14007 L 333.57884,58.14007 C 334.36653,56.1936 335.83676,54.38049 338.0592,54.38049 C 338.57089,54.38049 339.18723,54.48281 339.56315,54.58502 L 339.56315,56.84317 C 339.11848,56.70522 338.53758,56.6363 337.9904,56.6363 C 334.5711,56.6363 333.64805,60.4671 333.64805,63.6105 L 333.64805,72.22646 L 331.49441,72.22646 L 331.49441,58.68738" />
  <path
     style="fill:#000000;fill-opacity:1;fill-rule:nonzero;stroke:none"
     id="path2961"
     d="M 345.54522,54.7898 L 347.6984,54.7898 L 347.6984,72.22646 L 345.54522,72.22646 L 345.54522,54.7898 z M 347.6984,50.14034 L 345.54522,50.14034 L 345.54522,47.27044 L 347.6984,47.27044 L 347.6984,50.14034" />
  <path
     style="fill:#000000;fill-opacity:1;fill-rule:nonzero;stroke:none"
     id="path2963"
     d="M 354.46821,69.697 C 355.76709,70.34662 357.34033,70.79157 359.01504,70.79157 C 361.06621,70.79157 362.87728,69.66132 362.87728,67.67916 C 362.87728,63.54372 354.50142,64.19334 354.50142,59.13232 C 354.50142,55.67963 357.30434,54.38049 360.17646,54.38049 C 361.10001,54.38049 362.94603,54.58502 364.48323,55.16801 L 364.27871,57.04785 C 363.15114,56.53394 361.61344,56.22679 360.41698,56.22679 C 358.19459,56.22679 356.65506,56.90985 356.65506,59.13232 C 356.65506,62.38028 365.23543,61.97092 365.23543,67.67916 C 365.23543,71.37216 361.78292,72.63577 359.15081,72.63577 C 357.4756,72.63577 355.8008,72.43094 354.2636,71.81711 L 354.46821,69.697" />
  <path
     style="fill:#000000;fill-opacity:1;fill-rule:nonzero;stroke:none"
     id="path2965"
     d="M 383.11472,57.11458 C 381.95339,56.60291 380.55195,56.22679 379.3883,56.22679 C 375.18404,56.22679 372.82351,59.27007 372.82351,63.50813 C 372.82351,67.47464 375.21729,70.79157 379.14829,70.79157 C 380.51646,70.79157 381.78208,70.48233 383.08146,70.00405 L 383.28598,72.02179 C 381.81529,72.53341 380.44716,72.63577 378.80795,72.63577 C 373.19943,72.63577 370.46535,68.36228 370.46535,63.50813 C 370.46535,58.14007 373.91791,54.38049 379.08131,54.38049 C 381.16606,54.38049 382.66955,54.85878 383.28598,55.06345 L 383.11472,57.11458" />
  <path
     style="fill:#000000;fill-opacity:1;fill-rule:nonzero;stroke:none"
     id="path2967"
     d="M 389.61067,46.58539 L 391.7639,46.58539 L 391.7639,57.73076 L 391.83314,57.73076 C 392.75624,55.81763 394.70486,54.38049 397.26763,54.38049 C 401.95296,54.38049 403.2164,57.49274 403.2164,61.79963 L 403.2164,72.22646 L 401.06276,72.22646 L 401.06276,61.83287 C 401.06276,58.82528 400.48227,56.22679 396.92725,56.22679 C 393.09881,56.22679 391.7639,59.85071 391.7639,62.89399 L 391.7639,72.22646 L 389.61067,72.22646 L 389.61067,46.58539" />
  <path
     style="fill:#000000;fill-opacity:1;fill-rule:nonzero;stroke:none"
     id="path2969"
     d="M 421.91663,62.27791 C 421.91663,59.23464 420.68655,56.22679 417.47405,56.22679 C 414.29298,56.22679 412.34391,59.40593 412.34391,62.27791 L 421.91663,62.27791 z M 422.97769,71.67916 C 421.47379,72.29544 419.52512,72.63577 417.91689,72.63577 C 412.13939,72.63577 409.98575,68.73825 409.98575,63.50813 C 409.98575,58.17571 412.92713,54.38049 417.336,54.38049 C 422.25929,54.38049 424.27707,58.347 424.27707,63.02985 L 424.27707,64.12436 L 412.34391,64.12436 C 412.34391,67.81726 414.32856,70.79157 418.08824,70.79157 C 419.66094,70.79157 421.95212,70.14184 422.97769,69.49237 L 422.97769,71.67916" />
  <path
     style="fill:#000000;fill-opacity:1;fill-rule:nonzero;stroke:none"
     id="path2971"
     d="M 442.42976,48.36291 L 454.12004,48.36291 L 454.12004,50.41384 L 444.78787,50.41384 L 444.78787,58.92759 L 453.64216,58.92759 L 453.64216,60.97862 L 444.78787,60.97862 L 444.78787,70.17534 L 454.53186,70.17534 L 454.53186,72.22646 L 442.42976,72.22646 L 442.42976,48.36291" />
  <path
     style="fill:#000000;fill-opacity:1;fill-rule:nonzero;stroke:none"
     id="path2973"
     d="M 461.951,54.7898 L 464.10463,54.7898 L 464.10463,72.22646 L 461.951,72.22646 L 461.951,54.7898 z M 464.10463,50.14034 L 461.951,50.14034 L 461.951,47.27044 L 464.10463,47.27044 L 464.10463,50.14034" />
  <path
     style="fill:#000000;fill-opacity:1;fill-rule:nonzero;stroke:none"
     id="path2975"
     d="M 478.70253,70.79157 C 482.53101,70.79157 483.8636,66.68712 483.8636,63.50813 C 483.8636,60.32915 482.53101,56.22679 478.70253,56.22679 C 474.60032,56.22679 473.53918,60.12432 473.53918,63.50813 C 473.53918,66.89404 474.60032,70.79157 478.70253,70.79157 z M 486.01906,72.22646 L 483.8636,72.22646 L 483.8636,69.45679 L 483.79667,69.45679 C 482.63352,71.67916 480.85585,72.63577 478.35996,72.63577 C 473.57471,72.63577 471.18102,68.67151 471.18102,63.50813 C 471.18102,58.20894 473.23215,54.38049 478.35996,54.38049 C 481.77881,54.38049 483.48732,56.87651 483.79667,57.73076 L 483.8636,57.73076 L 483.8636,46.58539 L 486.01906,46.58539 L 486.01906,72.22646" />
  <path
     style="fill:#000000;fill-opacity:1;fill-rule:nonzero;stroke:none"
     id="path2977"
     d="M 500.24163,70.38002 C 504.13704,70.38002 505.5403,66.68712 505.5403,63.50813 C 505.5403,59.30356 504.31022,56.22679 500.37831,56.22679 C 496.27792,56.22679 495.21637,60.12432 495.21637,63.50813 C 495.21637,66.92738 496.58318,70.38002 500.24163,70.38002 z M 507.69535,70.79157 C 507.69535,75.64571 505.5084,79.60997 499.52638,79.60997 C 497.23465,79.60997 495.14803,78.9604 494.25956,78.68674 L 494.42813,76.5333 C 495.76305,77.21851 497.67658,77.76576 499.55827,77.76576 C 505.09836,77.76576 505.5767,73.73029 505.5767,68.80707 L 505.5084,68.80707 C 504.34666,71.33658 502.42852,72.22646 500.20974,72.22646 C 494.63329,72.22646 492.85539,67.37217 492.85539,63.50813 C 492.85539,58.20894 494.90656,54.38049 500.03665,54.38049 C 502.36019,54.38049 503.86368,54.68749 505.47195,56.7742 L 505.5403,56.7742 L 505.5403,54.7898 L 507.69535,54.7898 L 507.69535,70.79157" />
  <path
     style="fill:#000000;fill-opacity:1;fill-rule:nonzero;stroke:none"
     id="path2979"
     d="M 526.18827,62.27791 C 526.18827,59.23464 524.95815,56.22679 521.74613,56.22679 C 518.56603,56.22679 516.61599,59.40593 516.61599,62.27791 L 526.18827,62.27791 z M 527.24985,71.67916 C 525.74633,72.29544 523.79635,72.63577 522.18807,72.63577 C 516.41101,72.63577 514.26067,68.73825 514.26067,63.50813 C 514.26067,58.17571 517.19924,54.38049 521.60946,54.38049 C 526.52988,54.38049 528.54828,58.347 528.54828,63.02985 L 528.54828,64.12436 L 516.61599,64.12436 C 516.61599,67.81726 518.60243,70.79157 522.3613,70.79157 C 523.93302,70.79157 526.22472,70.14184 527.24985,69.49237 L 527.24985,71.67916" />
  <path
     style="fill:#000000;fill-opacity:1;fill-rule:nonzero;stroke:none"
     id="path2981"
     d="M 535.31856,58.89425 C 535.31856,57.55948 535.31856,56.1936 535.18189,54.7898 L 537.26865,54.7898 L 537.26865,57.9021 L 537.33686,57.9021 C 538.05214,56.32926 539.35062,54.38049 542.97725,54.38049 C 547.2873,54.38049 548.923,57.25248 548.923,61.08109 L 548.923,72.22646 L 546.77251,72.22646 L 546.77251,61.62834 C 546.77251,58.347 545.61066,56.22679 542.63559,56.22679 C 538.70375,56.22679 537.47353,59.67953 537.47353,62.58491 L 537.47353,72.22646 L 535.31856,72.22646 L 535.31856,58.89425" />
  <path
     style="fill:#000000;fill-opacity:1;fill-rule:nonzero;stroke:none"
     id="path2983"
     d="M 563.79829,70.79157 C 567.55705,70.79157 569.5754,67.54361 569.5754,63.50813 C 569.5754,59.4749 567.55705,56.22679 563.79829,56.22679 C 560.03504,56.22679 558.01679,59.4749 558.01679,63.50813 C 558.01679,67.54361 560.03504,70.79157 563.79829,70.79157 z M 563.79829,54.38049 C 569.43873,54.38049 571.93536,58.75635 571.93536,63.50813 C 571.93536,68.25991 569.43873,72.63577 563.79829,72.63577 C 558.15795,72.63577 555.66127,68.25991 555.66127,63.50813 C 555.66127,58.75635 558.15795,54.38049 563.79829,54.38049" />
  <path
     style="fill:#000000;fill-opacity:1;fill-rule:nonzero;stroke:none"
     id="path2985"
     d="M 577.33431,69.697 C 578.63274,70.34662 580.20916,70.79157 581.88121,70.79157 C 583.93147,70.79157 585.74468,69.66132 585.74468,67.67916 C 585.74468,63.54372 577.37076,64.19334 577.37076,59.13232 C 577.37076,55.67963 580.17266,54.38049 583.04296,54.38049 C 583.96787,54.38049 585.81305,54.58502 587.34847,55.16801 L 587.14797,57.04785 C 586.01818,56.53394 584.4827,56.22679 583.2844,56.22679 C 581.06111,56.22679 579.5212,56.90985 579.5212,59.13232 C 579.5212,62.38028 588.10469,61.97092 588.10469,67.67916 C 588.10469,71.37216 584.65124,72.63577 582.01783,72.63577 C 580.34124,72.63577 578.66914,72.43094 577.12923,71.81711 L 577.33431,69.697" />
  <path
     style="fill:#000000;fill-opacity:1;fill-rule:nonzero;stroke:none"
     id="path2987"
     d="M 593.29866,69.697 C 594.59709,70.34662 596.17345,70.79157 597.8455,70.79157 C 599.89577,70.79157 601.70903,69.66132 601.70903,67.67916 C 601.70903,63.54372 593.33052,64.19334 593.33052,59.13232 C 593.33052,55.67963 596.13695,54.38049 599.00736,54.38049 C 599.93217,54.38049 601.77739,54.58502 603.31282,55.16801 L 603.10778,57.04785 C 601.98243,56.53394 600.44705,56.22679 599.24885,56.22679 C 597.02546,56.22679 595.4855,56.90985 595.4855,59.13232 C 595.4855,62.38028 604.06909,61.97092 604.06909,67.67916 C 604.06909,71.37216 600.61564,72.63577 597.98223,72.63577 C 596.30559,72.63577 594.63359,72.43094 593.09352,71.81711 L 593.29866,69.697" />
  <path
     style="fill:#000000;fill-opacity:1;fill-rule:nonzero;stroke:none"
     id="path2989"
     d="M 621.23185,62.27791 C 621.23185,59.23464 619.99699,56.22679 616.78512,56.22679 C 613.60487,56.22679 611.65488,59.40593 611.65488,62.27791 L 621.23185,62.27791 z M 622.28863,71.67916 C 620.78522,72.29544 618.83977,72.63577 617.23149,72.63577 C 611.45443,72.63577 609.29941,68.73825 609.29941,63.50813 C 609.29941,58.17571 612.23808,54.38049 616.64835,54.38049 C 621.57335,54.38049 623.5917,58.347 623.5917,63.02985 L 623.5917,64.12436 L 611.65488,64.12436 C 611.65488,67.81726 613.64132,70.79157 617.40003,70.79157 C 618.97186,70.79157 621.26361,70.14184 622.28863,69.49237 L 622.28863,71.67916" />
  <path
     style="fill:#000000;fill-opacity:1;fill-rule:nonzero;stroke:none"
     id="path2991"
     d="M 630.35745,58.89425 C 630.35745,57.55948 630.35745,56.1936 630.22072,54.7898 L 632.30733,54.7898 L 632.30733,57.9021 L 632.37569,57.9021 C 633.09113,56.32926 634.38951,54.38049 638.01613,54.38049 C 642.32154,54.38049 643.96168,57.25248 643.96168,61.08109 L 643.96168,72.22646 L 641.81125,72.22646 L 641.81125,61.62834 C 641.81125,58.347 640.64944,56.22679 637.67442,56.22679 C 633.74254,56.22679 632.51237,59.67953 632.51237,62.58491 L 632.51237,72.22646 L 630.35745,72.22646 L 630.35745,58.89425" />
  <path
     style="fill:#000000;fill-opacity:1;fill-rule:nonzero;stroke:none"
     id="path2993"
     d="M 650.70015,69.697 C 651.99858,70.34662 653.57041,70.79157 655.24705,70.79157 C 657.29731,70.79157 659.10604,69.66132 659.10604,67.67916 C 659.10604,63.54372 650.73201,64.19334 650.73201,59.13232 C 650.73201,55.67963 653.53391,54.38049 656.40875,54.38049 C 657.32912,54.38049 659.17883,54.58502 660.71431,55.16801 L 660.50923,57.04785 C 659.38387,56.53394 657.84391,56.22679 656.6457,56.22679 C 654.4269,56.22679 652.88699,56.90985 652.88699,59.13232 C 652.88699,62.38028 661.47058,61.97092 661.47058,67.67916 C 661.47058,71.37216 658.01249,72.63577 655.38372,72.63577 C 653.70708,72.63577 652.03044,72.43094 650.49048,71.81711 L 650.70015,69.697" />
  <path
     style="fill:#000000;fill-opacity:1;fill-rule:nonzero;stroke:none"
     id="path2995"
     d="M 679.34842,57.11458 C 678.18666,56.60291 676.78342,56.22679 675.62162,56.22679 C 671.41628,56.22679 669.05632,59.27007 669.05632,63.50813 C 669.05632,67.47464 671.44829,70.79157 675.38008,70.79157 C 676.75156,70.79157 678.01349,70.48233 679.3165,70.00405 L 679.51695,72.02179 C 678.04994,72.53341 676.67856,72.63577 675.04306,72.63577 C 669.43453,72.63577 666.69636,68.36228 666.69636,63.50813 C 666.69636,58.14007 670.14971,54.38049 675.31636,54.38049 C 677.39848,54.38049 678.90195,54.85878 679.51695,55.06345 L 679.34842,57.11458" />
  <path
     style="fill:#000000;fill-opacity:1;fill-rule:nonzero;stroke:none"
     id="path2997"
     d="M 685.84535,46.58539 L 687.99579,46.58539 L 687.99579,57.73076 L 688.06415,57.73076 C 688.98895,55.81763 690.93899,54.38049 693.4994,54.38049 C 698.18312,54.38049 699.44969,57.49274 699.44969,61.79963 L 699.44969,72.22646 L 697.29915,72.22646 L 697.29915,61.83287 C 697.29915,58.82528 696.716,56.22679 693.16228,56.22679 C 689.33072,56.22679 687.99579,59.85071 687.99579,62.89399 L 687.99579,72.22646 L 685.84535,72.22646 L 685.84535,46.58539" />
  <path
     style="fill:#000000;fill-opacity:1;fill-rule:nonzero;stroke:none"
     id="path2999"
     d="M 717.32747,63.43916 L 716.717,63.43916 C 712.98571,63.43916 708.54802,63.81737 708.54802,67.64582 C 708.54802,69.93492 710.18367,70.79157 712.16547,70.79157 C 717.2273,70.79157 717.32747,66.38012 717.32747,64.50033 L 717.32747,63.43916 z M 717.53256,69.42345 L 717.46878,69.42345 C 716.51196,71.50792 714.07906,72.63577 711.92862,72.63577 C 706.9716,72.63577 706.18357,69.28545 706.18357,67.71271 C 706.18357,61.86855 712.407,61.59495 716.91745,61.59495 L 717.32747,61.59495 L 717.32747,60.70497 C 717.32747,57.73076 716.27053,56.22679 713.36372,56.22679 C 711.555,56.22679 709.84649,56.6363 708.23363,57.66169 L 708.23363,55.57732 C 709.56871,54.92775 711.82386,54.38049 713.36372,54.38049 C 717.66933,54.38049 719.48255,56.32926 719.48255,60.87641 L 719.48255,68.5692 C 719.48255,69.97066 719.48255,71.02959 719.65562,72.22646 L 717.53256,72.22646 L 717.53256,69.42345" />
  <path
     style="fill:#000000;fill-opacity:1;fill-rule:nonzero;stroke:none"
     id="path3001"
     d="M 728.74497,56.6363 L 725.2277,56.6363 L 725.2277,54.7898 L 728.74497,54.7898 L 728.74497,53.52624 C 728.74497,49.86893 728.88165,46.17608 733.36467,46.17608 C 734.04365,46.17608 734.96851,46.27844 735.37853,46.51865 L 735.24186,48.39834 C 734.79533,48.15823 734.14836,48.02253 733.53336,48.02253 C 730.59015,48.02253 730.8999,51.20151 730.8999,53.28598 L 730.8999,54.7898 L 734.83183,54.7898 L 734.83183,56.6363 L 730.8999,56.6363 L 730.8999,72.22646 L 728.74497,72.22646 L 728.74497,56.6363" />
  <path
     style="fill:#000000;fill-opacity:1;fill-rule:nonzero;stroke:none"
     id="path3003"
     d="M 748.84614,56.6363 L 744.88234,56.6363 L 744.88234,67.91958 C 744.88234,69.49237 745.46559,70.79157 747.21054,70.79157 C 748.03059,70.79157 748.57738,70.62028 749.1879,70.38002 L 749.32906,72.15744 C 748.81428,72.36217 747.75724,72.63577 746.69571,72.63577 C 742.86863,72.63577 742.72742,70.00405 742.72742,66.82491 L 742.72742,56.6363 L 739.31042,56.6363 L 739.31042,54.7898 L 742.72742,54.7898 L 742.72742,50.58528 L 744.88234,49.83324 L 744.88234,54.7898 L 748.84614,54.7898 L 748.84614,56.6363" />
  <path
     style="fill:#000000;fill-opacity:1;fill-rule:nonzero;stroke:none"
     id="path3005"
     d="M 191.67017,98.18586 C 190.16631,97.40043 188.01039,97.16032 186.33551,97.16032 C 180.14896,97.16032 176.66036,101.53592 176.66036,107.45144 C 176.66036,113.46683 180.04636,117.74033 186.33551,117.74033 C 187.90834,117.74033 190.30203,117.53539 191.67017,116.71479 L 191.80589,118.76602 C 190.50669,119.55329 187.84132,119.79141 186.33551,119.79141 C 178.81404,119.79141 174.30266,114.83495 174.30266,107.45144 C 174.30266,100.20334 178.952,95.10919 186.33551,95.10919 C 187.73703,95.10919 190.5754,95.34935 191.80589,95.99907 L 191.67017,98.18586" />
  <path
     style="fill:#000000;fill-opacity:1;fill-rule:nonzero;stroke:none"
     id="path3007"
     d="M 206.47281,117.94725 C 210.23468,117.94725 212.25031,114.69929 212.25031,110.66351 C 212.25031,106.63053 210.23468,103.38258 206.47281,103.38258 C 202.71322,103.38258 200.69521,106.63053 200.69521,110.66351 C 200.69521,114.69929 202.71322,117.94725 206.47281,117.94725 z M 206.47281,101.53592 C 212.1145,101.53592 214.61025,105.91204 214.61025,110.66351 C 214.61025,115.41544 212.1145,119.79141 206.47281,119.79141 C 200.83326,119.79141 198.3371,115.41544 198.3371,110.66351 C 198.3371,105.91204 200.83326,101.53592 206.47281,101.53592" />
  <path
     style="fill:#000000;fill-opacity:1;fill-rule:nonzero;stroke:none"
     id="path3009"
     d="M 221.34443,106.04963 C 221.34443,104.71516 221.34443,103.34924 221.20875,101.94549 L 223.29309,101.94549 L 223.29309,105.05774 L 223.36207,105.05774 C 224.07864,103.48504 225.37756,101.53592 229.00148,101.53592 C 233.31044,101.53592 234.95025,104.40817 234.95025,108.23647 L 234.95025,119.382 L 232.79657,119.382 L 232.79657,108.78372 C 232.79657,105.50253 231.63528,103.38258 228.6611,103.38258 C 224.72783,103.38258 223.49775,106.83506 223.49775,109.74059 L 223.49775,119.382 L 221.34443,119.382 L 221.34443,106.04963" />
  <path
     style="fill:#000000;fill-opacity:1;fill-rule:nonzero;stroke:none"
     id="path3011"
     d="M 244.48917,103.79163 L 240.96786,103.79163 L 240.96786,101.94549 L 244.48917,101.94549 L 244.48917,100.68162 C 244.48917,97.02446 244.62503,93.33146 249.1032,93.33146 C 249.78825,93.33146 250.71189,93.43397 251.12093,93.67184 L 250.98521,95.55387 C 250.54058,95.31371 249.89085,95.17806 249.27437,95.17806 C 246.33577,95.17806 246.64289,98.35714 246.64289,100.44151 L 246.64289,101.94549 L 250.5738,101.94549 L 250.5738,103.79163 L 246.64289,103.79163 L 246.64289,119.382 L 244.48917,119.382 L 244.48917,103.79163" />
  <path
     style="fill:#000000;fill-opacity:1;fill-rule:nonzero;stroke:none"
     id="path3013"
     d="M 264.11301,95.21125 L 266.81336,95.21125 L 262.50655,100.13452 L 260.93376,100.13452 L 264.11301,95.21125 z M 267.7012,109.43345 C 267.7012,106.39032 266.47071,103.38258 263.25875,103.38258 C 260.07727,103.38258 258.12866,106.56171 258.12866,109.43345 L 267.7012,109.43345 z M 268.76235,118.83469 C 267.25849,119.45077 265.30987,119.79141 263.70105,119.79141 C 257.92395,119.79141 255.77041,115.89388 255.77041,110.66351 C 255.77041,105.33109 258.71119,101.53592 263.1207,101.53592 C 268.04386,101.53592 270.06141,105.50253 270.06141,110.18548 L 270.06141,111.2799 L 258.12866,111.2799 C 258.12866,114.97259 260.11272,117.94725 263.87249,117.94725 C 265.44515,117.94725 267.73687,117.29763 268.76235,116.64791 L 268.76235,118.83469" />
  <path
     style="fill:#000000;fill-opacity:1;fill-rule:nonzero;stroke:none"
     id="path3015"
     d="M 283.32475,117.94725 C 287.15332,117.94725 288.48596,113.84265 288.48596,110.66351 C 288.48596,107.48478 287.15332,103.38258 283.32475,103.38258 C 279.22259,103.38258 278.16144,107.28031 278.16144,110.66351 C 278.16144,114.04957 279.22259,117.94725 283.32475,117.94725 z M 290.64133,119.382 L 288.48596,119.382 L 288.48596,116.61232 L 288.41894,116.61232 C 287.25533,118.83469 285.47802,119.79141 282.98227,119.79141 C 278.19698,119.79141 275.80329,115.82684 275.80329,110.66351 C 275.80329,105.36488 277.85432,101.53592 282.98227,101.53592 C 286.40153,101.53592 288.11004,104.0322 288.41894,104.88645 L 288.48596,104.88645 L 288.48596,93.74107 L 290.64133,93.74107 L 290.64133,119.382" />
  <path
     style="fill:#000000;fill-opacity:1;fill-rule:nonzero;stroke:none"
     id="path3017"
     d="M 305.54639,95.21125 L 308.24716,95.21125 L 303.93811,100.13452 L 302.36719,100.13452 L 305.54639,95.21125 z M 309.13477,109.43345 C 309.13477,106.39032 307.90464,103.38258 304.69213,103.38258 C 301.51107,103.38258 299.56209,106.56171 299.56209,109.43345 L 309.13477,109.43345 z M 310.19578,118.83469 C 308.69192,119.45077 306.74331,119.79141 305.13498,119.79141 C 299.35757,119.79141 297.20388,115.89388 297.20388,110.66351 C 297.20388,105.33109 300.14521,101.53592 304.55413,101.53592 C 309.47729,101.53592 311.49516,105.50253 311.49516,110.18548 L 311.49516,111.2799 L 299.56209,111.2799 C 299.56209,114.97259 301.54674,117.94725 305.30642,117.94725 C 306.87903,117.94725 309.1703,117.29763 310.19578,116.64791 L 310.19578,118.83469" />
  <path
     style="fill:#000000;fill-opacity:1;fill-rule:nonzero;stroke:none"
     id="path3019"
     d="M 318.26456,105.84291 C 318.26456,103.92973 318.26456,103.21113 318.12879,101.94549 L 320.28247,101.94549 L 320.28247,105.29785 L 320.34899,105.29785 C 321.13673,103.34924 322.60696,101.53592 324.82939,101.53592 C 325.34099,101.53592 325.95746,101.63849 326.33329,101.74055 L 326.33329,103.9984 C 325.88821,103.86091 325.30773,103.79163 324.76064,103.79163 C 321.34129,103.79163 320.41824,107.62054 320.41824,110.76598 L 320.41824,119.382 L 318.26456,119.382 L 318.26456,105.84291" />
  <path
     style="fill:#000000;fill-opacity:1;fill-rule:nonzero;stroke:none"
     id="path3021"
     d="M 342.12819,110.59709 L 341.51176,110.59709 C 337.78579,110.59709 333.34093,110.9729 333.34093,114.80135 C 333.34093,117.09076 334.98251,117.94725 336.96484,117.94725 C 342.02336,117.94725 342.12819,113.53565 342.12819,111.65586 L 342.12819,110.59709 z M 342.33271,116.57903 L 342.26392,116.57903 C 341.30719,118.66355 338.88019,119.79141 336.72474,119.79141 C 331.76818,119.79141 330.98281,116.44103 330.98281,114.86834 C 330.98281,109.02424 337.20494,108.75033 341.71678,108.75033 L 342.12819,108.75033 L 342.12819,107.86065 C 342.12819,104.88645 341.06704,103.38258 338.16176,103.38258 C 336.34841,103.38258 334.6399,103.79163 333.03385,104.81722 L 333.03385,102.73285 C 334.36653,102.08313 336.62227,101.53592 338.16176,101.53592 C 342.46857,101.53592 344.28138,103.48504 344.28138,108.03209 L 344.28138,115.72478 C 344.28138,117.12619 344.28138,118.18512 344.45263,119.382 L 342.33271,119.382 L 342.33271,116.57903" />
  <path
     style="fill:#000000;fill-opacity:1;fill-rule:nonzero;stroke:none"
     id="path3023"
     d="M 359.59598,103.79163 L 355.62959,103.79163 L 355.62959,115.07511 C 355.62959,116.64791 356.21225,117.94725 357.95403,117.94725 C 358.77503,117.94725 359.32221,117.77591 359.93864,117.53539 L 360.07441,119.31312 C 359.56272,119.5178 358.50116,119.79141 357.4423,119.79141 C 353.61395,119.79141 353.47586,117.15943 353.47586,113.9807 L 353.47586,103.79163 L 350.05669,103.79163 L 350.05669,101.94549 L 353.47586,101.94549 L 353.47586,97.74081 L 355.62959,96.98903 L 355.62959,101.94549 L 359.59598,101.94549 L 359.59598,103.79163" />
  <path
     style="fill:#000000;fill-opacity:1;fill-rule:nonzero;stroke:none"
     id="path3025"
     d="M 366.12532,101.94549 L 368.27841,101.94549 L 368.27841,119.382 L 366.12532,119.382 L 366.12532,101.94549 z M 368.27841,97.29612 L 366.12532,97.29612 L 366.12532,94.42628 L 368.27841,94.42628 L 368.27841,97.29612" />
  <path
     style="fill:#000000;fill-opacity:1;fill-rule:nonzero;stroke:none"
     id="path3027"
     d="M 383.18347,117.94725 C 386.94539,117.94725 388.96102,114.69929 388.96102,110.66351 C 388.96102,106.63053 386.94539,103.38258 383.18347,103.38258 C 379.42384,103.38258 377.40647,106.63053 377.40647,110.66351 C 377.40647,114.69929 379.42384,117.94725 383.18347,117.94725 z M 383.18347,101.53592 C 388.8253,101.53592 391.3215,105.91204 391.3215,110.66351 C 391.3215,115.41544 388.8253,119.79141 383.18347,119.79141 C 377.54402,119.79141 375.04826,115.41544 375.04826,110.66351 C 375.04826,105.91204 377.54402,101.53592 383.18347,101.53592" />
  <path
     style="fill:#000000;fill-opacity:1;fill-rule:nonzero;stroke:none"
     id="path3029"
     d="M 398.05527,106.04963 C 398.05527,104.71516 398.05527,103.34924 397.91951,101.94549 L 400.00393,101.94549 L 400.00393,105.05774 L 400.07314,105.05774 C 400.78944,103.48504 402.08828,101.53592 405.71219,101.53592 C 410.02129,101.53592 411.66105,104.40817 411.66105,108.23647 L 411.66105,119.382 L 409.50778,119.382 L 409.50778,108.78372 C 409.50778,105.50253 408.34653,103.38258 405.37181,103.38258 C 401.43909,103.38258 400.2085,106.83506 400.2085,109.74059 L 400.2085,119.382 L 398.05527,119.382 L 398.05527,106.04963" />
  <path
     style="fill:#000000;fill-opacity:1;fill-rule:nonzero;stroke:none"
     id="path3031"
     d="M 430.22775,116.85243 C 431.52713,117.50216 433.09987,117.94725 434.77508,117.94725 C 436.8262,117.94725 438.63682,116.81685 438.63682,114.83495 C 438.63682,110.69955 430.26096,111.34882 430.26096,106.2878 C 430.26096,102.83532 433.06438,101.53592 435.936,101.53592 C 436.85951,101.53592 438.70607,101.74055 440.24323,102.32145 L 440.03821,104.20349 C 438.91059,103.68957 437.37348,103.38258 436.17661,103.38258 C 433.95413,103.38258 432.41464,104.06544 432.41464,106.2878 C 432.41464,109.53591 440.99725,109.1263 440.99725,114.83495 C 440.99725,118.5277 437.54246,119.79141 434.91039,119.79141 C 433.23564,119.79141 431.56039,119.58647 430.02095,118.97274 L 430.22775,116.85243" />
  <path
     style="fill:#000000;fill-opacity:1;fill-rule:nonzero;stroke:none"
     id="path3033"
     d="M 461.12995,115.27979 C 461.12995,116.61232 461.12995,117.98044 461.26796,119.382 L 459.18134,119.382 L 459.18134,116.27194 L 459.11437,116.27194 C 458.39588,117.84254 457.09691,119.79141 453.47313,119.79141 C 449.16577,119.79141 447.52427,116.91932 447.52427,113.09086 L 447.52427,101.94549 L 449.67791,101.94549 L 449.67791,112.5433 C 449.67791,115.82684 450.84106,117.94725 453.81565,117.94725 C 457.74664,117.94725 458.97682,114.49237 458.97682,111.58699 L 458.97682,101.94549 L 461.12995,101.94549 L 461.12995,115.27979" />
  <path
     style="fill:#000000;fill-opacity:1;fill-rule:nonzero;stroke:none"
     id="path3035"
     d="M 469.19869,101.94549 L 471.35233,101.94549 L 471.35233,119.382 L 469.19869,119.382 L 469.19869,101.94549 z M 471.35233,97.29612 L 469.19869,97.29612 L 469.19869,94.42628 L 471.35233,94.42628 L 471.35233,97.29612" />
  <path
     style="fill:#000000;fill-opacity:1;fill-rule:nonzero;stroke:none"
     id="path3037"
     d="M 478.12163,116.85243 C 479.42102,117.50216 480.99376,117.94725 482.66905,117.94725 C 484.72023,117.94725 486.53075,116.81685 486.53075,114.83495 C 486.53075,110.69955 478.15494,111.34882 478.15494,106.2878 C 478.15494,102.83532 480.95831,101.53592 483.82989,101.53592 C 484.75344,101.53592 486.59995,101.74055 488.13725,102.32145 L 487.93223,104.20349 C 486.80457,103.68957 485.26736,103.38258 484.07044,103.38258 C 481.84801,103.38258 480.30853,104.06544 480.30853,106.2878 C 480.30853,109.53591 488.88895,109.1263 488.88895,114.83495 C 488.88895,118.5277 485.43634,119.79141 482.80483,119.79141 C 481.12953,119.79141 479.45427,119.58647 477.91711,118.97274 L 478.12163,116.85243" />
  <path
     style="fill:#000000;fill-opacity:1;fill-rule:nonzero;stroke:none"
     id="path3039"
     d="M 494.0878,116.85243 C 495.38946,117.50216 496.96128,117.94725 498.63791,117.94725 C 500.68812,117.94725 502.49687,116.81685 502.49687,114.83495 C 502.49687,110.69955 494.1211,111.34882 494.1211,106.2878 C 494.1211,102.83532 496.92489,101.53592 499.79969,101.53592 C 500.72001,101.53592 502.56981,101.74055 504.10515,102.32145 L 503.90013,104.20349 C 502.77479,103.68957 501.23489,103.38258 500.03665,103.38258 C 497.81786,103.38258 496.27792,104.06544 496.27792,106.2878 C 496.27792,109.53591 504.86145,109.1263 504.86145,114.83495 C 504.86145,118.5277 501.40346,119.79141 498.77459,119.79141 C 497.09797,119.79141 495.42139,119.58647 493.88095,118.97274 L 494.0878,116.85243" />
  <path
     style="fill:#000000;fill-opacity:1;fill-rule:nonzero;stroke:none"
     id="path3041"
     d="M 522.01948,109.43345 C 522.01948,106.39032 520.78937,103.38258 517.5774,103.38258 C 514.39271,103.38258 512.44729,106.56171 512.44729,109.43345 L 522.01948,109.43345 z M 523.08106,118.83469 C 521.57296,119.45077 519.62751,119.79141 518.01928,119.79141 C 512.24227,119.79141 510.08722,115.89388 510.08722,110.66351 C 510.08722,105.33109 513.0304,101.53592 517.43614,101.53592 C 522.3613,101.53592 524.37944,105.50253 524.37944,110.18548 L 524.37944,111.2799 L 512.44729,111.2799 C 512.44729,114.97259 514.42911,117.94725 518.18782,117.94725 C 519.76418,117.94725 522.0514,117.29763 523.08106,116.64791 L 523.08106,118.83469" />
  <path
     style="fill:#000000;fill-opacity:1;fill-rule:nonzero;stroke:none"
     id="path3043"
     d="M 191.67017,145.34123 C 190.16631,144.55586 188.01039,144.3157 186.33551,144.3157 C 180.14896,144.3157 176.66036,148.6914 176.66036,154.60682 C 176.66036,160.62236 180.04636,164.89586 186.33551,164.89586 C 187.90834,164.89586 190.30203,164.69077 191.67017,163.87017 L 191.80589,165.9214 C 190.50669,166.70861 187.84132,166.94694 186.33551,166.94694 C 178.81404,166.94694 174.30266,161.99048 174.30266,154.60682 C 174.30266,147.35872 178.952,142.26462 186.33551,142.26462 C 187.73703,142.26462 190.5754,142.50253 191.80589,143.15205 L 191.67017,145.34123" />
  <path
     style="fill:#000000;fill-opacity:1;fill-rule:nonzero;stroke:none"
     id="path3045"
     d="M 206.47281,165.10258 C 210.23468,165.10258 212.25031,161.85462 212.25031,157.81889 C 212.25031,153.78596 210.23468,150.53801 206.47281,150.53801 C 202.71322,150.53801 200.69521,153.78596 200.69521,157.81889 C 200.69521,161.85462 202.71322,165.10258 206.47281,165.10258 z M 206.47281,148.6914 C 212.1145,148.6914 214.61025,153.06737 214.61025,157.81889 C 214.61025,162.57082 212.1145,166.94694 206.47281,166.94694 C 200.83326,166.94694 198.3371,162.57082 198.3371,157.81889 C 198.3371,153.06737 200.83326,148.6914 206.47281,148.6914" />
  <path
     style="fill:#000000;fill-opacity:1;fill-rule:nonzero;stroke:none"
     id="path3047"
     d="M 221.34443,153.20506 C 221.34443,151.87054 221.34443,150.50462 221.20875,149.10086 L 223.29309,149.10086 L 223.29309,152.21312 L 223.36207,152.21312 C 224.07864,150.64047 225.37756,148.6914 229.00148,148.6914 C 233.31044,148.6914 234.95025,151.56339 234.95025,155.392 L 234.95025,166.53738 L 232.79657,166.53738 L 232.79657,155.9391 C 232.79657,152.6578 231.63528,150.53801 228.6611,150.53801 C 224.72783,150.53801 223.49775,153.99049 223.49775,156.89582 L 223.49775,166.53738 L 221.34443,166.53738 L 221.34443,153.20506" />
  <path
     style="fill:#000000;fill-opacity:1;fill-rule:nonzero;stroke:none"
     id="path3049"
     d="M 244.48917,150.94706 L 240.96786,150.94706 L 240.96786,149.10086 L 244.48917,149.10086 L 244.48917,147.83715 C 244.48917,144.17999 244.62503,140.48684 249.1032,140.48684 C 249.78825,140.48684 250.71189,140.5893 251.12093,140.82946 L 250.98521,142.70941 C 250.54058,142.46925 249.89085,142.33344 249.27437,142.33344 C 246.33577,142.33344 246.64289,145.51257 246.64289,147.59704 L 246.64289,149.10086 L 250.5738,149.10086 L 250.5738,150.94706 L 246.64289,150.94706 L 246.64289,166.53738 L 244.48917,166.53738 L 244.48917,150.94706" />
  <path
     style="fill:#000000;fill-opacity:1;fill-rule:nonzero;stroke:none"
     id="path3051"
     d="M 267.7012,156.58867 C 267.7012,153.54524 266.47071,150.53801 263.25875,150.53801 C 260.07727,150.53801 258.12866,153.71668 258.12866,156.58867 L 267.7012,156.58867 z M 268.76235,165.99022 C 267.25849,166.60655 265.30987,166.94694 263.70105,166.94694 C 257.92395,166.94694 255.77041,163.04916 255.77041,157.81889 C 255.77041,152.48662 258.71119,148.6914 263.1207,148.6914 C 268.04386,148.6914 270.06141,152.6578 270.06141,157.34102 L 270.06141,158.43543 L 258.12866,158.43543 C 258.12866,162.12802 260.11272,165.10258 263.87249,165.10258 C 265.44515,165.10258 267.73687,164.45301 268.76235,163.80328 L 268.76235,165.99022" />
  <path
     style="fill:#000000;fill-opacity:1;fill-rule:nonzero;stroke:none"
     id="path3053"
     d="M 283.32475,165.10258 C 287.15332,165.10258 288.48596,160.99818 288.48596,157.81889 C 288.48596,154.64021 287.15332,150.53801 283.32475,150.53801 C 279.22259,150.53801 278.16144,154.43553 278.16144,157.81889 C 278.16144,161.20495 279.22259,165.10258 283.32475,165.10258 z M 290.64133,166.53738 L 288.48596,166.53738 L 288.48596,163.7677 L 288.41894,163.7677 C 287.25533,165.99022 285.47802,166.94694 282.98227,166.94694 C 278.19698,166.94694 275.80329,162.98227 275.80329,157.81889 C 275.80329,152.52016 277.85432,148.6914 282.98227,148.6914 C 286.40153,148.6914 288.11004,151.18758 288.41894,152.04183 L 288.48596,152.04183 L 288.48596,140.89645 L 290.64133,140.89645 L 290.64133,166.53738" />
  <path
     style="fill:#000000;fill-opacity:1;fill-rule:nonzero;stroke:none"
     id="path3055"
     d="M 309.13477,156.58867 C 309.13477,153.54524 307.90464,150.53801 304.69213,150.53801 C 301.51107,150.53801 299.56209,153.71668 299.56209,156.58867 L 309.13477,156.58867 z M 310.19578,165.99022 C 308.69192,166.60655 306.74331,166.94694 305.13498,166.94694 C 299.35757,166.94694 297.20388,163.04916 297.20388,157.81889 C 297.20388,152.48662 300.14521,148.6914 304.55413,148.6914 C 309.47729,148.6914 311.49516,152.6578 311.49516,157.34102 L 311.49516,158.43543 L 299.56209,158.43543 C 299.56209,162.12802 301.54674,165.10258 305.30642,165.10258 C 306.87903,165.10258 309.1703,164.45301 310.19578,163.80328 L 310.19578,165.99022" />
  <path
     style="fill:#000000;fill-opacity:1;fill-rule:nonzero;stroke:none"
     id="path3057"
     d="M 318.26456,152.99819 C 318.26456,151.08511 318.26456,150.36667 318.12879,149.10086 L 320.28247,149.10086 L 320.28247,152.45103 L 320.34899,152.45103 C 321.13673,150.50462 322.60696,148.6914 324.82939,148.6914 C 325.34099,148.6914 325.95746,148.79392 326.33329,148.89598 L 326.33329,151.15393 C 325.88821,151.01629 325.30773,150.94706 324.76064,150.94706 C 321.34129,150.94706 320.41824,154.77826 320.41824,157.92136 L 320.41824,166.53738 L 318.26456,166.53738 L 318.26456,152.99819" />
  <path
     style="fill:#000000;fill-opacity:1;fill-rule:nonzero;stroke:none"
     id="path3059"
     d="M 342.12819,157.75007 L 341.51176,157.75007 C 337.78579,157.75007 333.34093,158.12828 333.34093,161.95668 C 333.34093,164.24614 334.98251,165.10258 336.96484,165.10258 C 342.02336,165.10258 342.12819,160.69103 342.12819,158.81124 L 342.12819,157.75007 z M 342.33271,163.73446 L 342.26392,163.73446 C 341.30719,165.81878 338.88019,166.94694 336.72474,166.94694 C 331.76818,166.94694 330.98281,163.59641 330.98281,162.02372 C 330.98281,156.17962 337.20494,155.90586 341.71678,155.90586 L 342.12819,155.90586 L 342.12819,155.01618 C 342.12819,152.04183 341.06704,150.53801 338.16176,150.53801 C 336.34841,150.53801 334.6399,150.94706 333.03385,151.97275 L 333.03385,149.88828 C 334.36653,149.23851 336.62227,148.6914 338.16176,148.6914 C 342.46857,148.6914 344.28138,150.64047 344.28138,155.18727 L 344.28138,162.88021 C 344.28138,164.28172 344.28138,165.3405 344.45263,166.53738 L 342.33271,166.53738 L 342.33271,163.73446" />
  <path
     style="fill:#000000;fill-opacity:1;fill-rule:nonzero;stroke:none"
     id="path3061"
     d="M 350.46847,164.72682 L 360.96416,150.94706 L 350.87764,150.94706 L 350.87764,149.10086 L 363.45776,149.10086 L 363.45776,150.94706 L 352.96426,164.69077 L 363.45776,164.69077 L 363.45776,166.53738 L 350.46847,166.53738 L 350.46847,164.72682" />
  <path
     style="fill:#000000;fill-opacity:1;fill-rule:nonzero;stroke:none"
     id="path3063"
     d="M 369.92045,149.10086 L 372.07404,149.10086 L 372.07404,166.53738 L 369.92045,166.53738 L 369.92045,149.10086 z M 372.07404,144.4514 L 369.92045,144.4514 L 369.92045,141.58165 L 372.07404,141.58165 L 372.07404,144.4514" />
  <path
     style="fill:#000000;fill-opacity:1;fill-rule:nonzero;stroke:none"
     id="path3065"
     d="M 386.97865,165.10258 C 390.74056,165.10258 392.75624,161.85462 392.75624,157.81889 C 392.75624,153.78596 390.74056,150.53801 386.97865,150.53801 C 383.21905,150.53801 381.20164,153.78596 381.20164,157.81889 C 381.20164,161.85462 383.21905,165.10258 386.97865,165.10258 z M 386.97865,148.6914 C 392.62048,148.6914 395.11668,153.06737 395.11668,157.81889 C 395.11668,162.57082 392.62048,166.94694 386.97865,166.94694 C 381.33919,166.94694 378.84344,162.57082 378.84344,157.81889 C 378.84344,153.06737 381.33919,148.6914 386.97865,148.6914" />
  <path
     style="fill:#000000;fill-opacity:1;fill-rule:nonzero;stroke:none"
     id="path3067"
     d="M 401.8505,153.20506 C 401.8505,151.87054 401.8505,150.50462 401.71463,149.10086 L 403.79907,149.10086 L 403.79907,152.21312 L 403.86836,152.21312 C 404.58457,150.64047 405.88345,148.6914 409.50778,148.6914 C 413.81696,148.6914 415.45618,151.56339 415.45618,155.392 L 415.45618,166.53738 L 413.303,166.53738 L 413.303,155.9391 C 413.303,152.6578 412.14167,150.53801 409.16744,150.53801 C 405.23422,150.53801 404.00368,153.99049 404.00368,156.89582 L 404.00368,166.53738 L 401.8505,166.53738 L 401.8505,153.20506" />
  <path
     style="fill:#000000;fill-opacity:1;fill-rule:nonzero;stroke:none"
     id="path3069"
     d="M 434.15637,156.58867 C 434.15637,153.54524 432.92629,150.53801 429.71378,150.53801 C 426.53285,150.53801 424.58373,153.71668 424.58373,156.58867 L 434.15637,156.58867 z M 435.21751,165.99022 C 433.71352,166.60655 431.76495,166.94694 430.15663,166.94694 C 424.37913,166.94694 422.22599,163.04916 422.22599,157.81889 C 422.22599,152.48662 425.16686,148.6914 429.57578,148.6914 C 434.49903,148.6914 436.5169,152.6578 436.5169,157.34102 L 436.5169,158.43543 L 424.58373,158.43543 C 424.58373,162.12802 426.56829,165.10258 430.32798,165.10258 C 431.90072,165.10258 434.19191,164.45301 435.21751,163.80328 L 435.21751,165.99022" />
  <path
     style="fill:#000000;fill-opacity:1;fill-rule:nonzero;stroke:none"
     id="path3071"
     d="M 454.70554,163.49395 C 456.10688,164.38419 457.74664,164.89586 459.96862,164.89586 C 462.90949,164.89586 465.33699,163.39189 465.33699,160.00807 C 465.33699,155.32318 454.39614,154.74227 454.39614,148.48672 C 454.39614,144.65832 457.74664,142.26462 461.95318,142.26462 C 463.11452,142.26462 464.99443,142.43591 466.63592,143.04959 L 466.26,145.20558 C 465.20123,144.62284 463.52374,144.3157 461.91774,144.3157 C 459.45698,144.3157 456.75662,145.34123 456.75662,148.41806 C 456.75662,153.20506 467.69474,153.23866 467.69474,160.2126 C 467.69474,165.0335 463.55923,166.94694 459.86657,166.94694 C 457.54162,166.94694 455.73106,166.46866 454.46489,165.9214 L 454.70554,163.49395" />
  <path
     style="fill:#000000;fill-opacity:1;fill-rule:nonzero;stroke:none"
     id="path3073"
     d="M 480.92501,166.53738 L 478.39554,166.53738 L 472.47995,149.10086 L 474.84038,149.10086 L 479.66116,164.17925 L 479.72818,164.17925 L 484.78898,149.10086 L 487.04467,149.10086 L 480.92501,166.53738" />
  <path
     style="fill:#000000;fill-opacity:1;fill-rule:nonzero;stroke:none"
     id="path3075"
     d="M 492.71962,149.10086 L 494.87467,149.10086 L 494.87467,166.53738 L 492.71962,166.53738 L 492.71962,149.10086 z M 494.87467,144.4514 L 492.71962,144.4514 L 492.71962,141.58165 L 494.87467,141.58165 L 494.87467,144.4514" />
  <path
     style="fill:#000000;fill-opacity:1;fill-rule:nonzero;stroke:none"
     id="path3077"
     d="M 501.37157,164.72682 L 511.86867,150.94706 L 501.78157,150.94706 L 501.78157,149.10086 L 514.36079,149.10086 L 514.36079,150.94706 L 503.86819,164.69077 L 514.36079,164.69077 L 514.36079,166.53738 L 501.37157,166.53738 L 501.37157,164.72682" />
  <path
     style="fill:#000000;fill-opacity:1;fill-rule:nonzero;stroke:none"
     id="path3079"
     d="M 519.21754,164.72682 L 529.71467,150.94706 L 519.62751,150.94706 L 519.62751,149.10086 L 532.20682,149.10086 L 532.20682,150.94706 L 521.71422,164.69077 L 532.20682,164.69077 L 532.20682,166.53738 L 519.21754,166.53738 L 519.21754,164.72682" />
  <path
     style="fill:#000000;fill-opacity:1;fill-rule:nonzero;stroke:none"
     id="path3081"
     d="M 549.29642,156.58867 C 549.29642,153.54524 548.06635,150.53801 544.85434,150.53801 C 541.67423,150.53801 539.72424,153.71668 539.72424,156.58867 L 549.29642,156.58867 z M 550.35815,165.99022 C 548.85464,166.60655 546.90924,166.94694 545.30091,166.94694 C 539.51926,166.94694 537.36882,163.04916 537.36882,157.81889 C 537.36882,152.48662 540.30744,148.6914 544.71766,148.6914 C 549.64272,148.6914 551.65653,152.6578 551.65653,157.34102 L 551.65653,158.43543 L 539.72424,158.43543 C 539.72424,162.12802 541.71068,165.10258 545.46944,165.10258 C 547.04127,165.10258 549.33292,164.45301 550.35815,163.80328 L 550.35815,165.99022" />
  <path
     style="fill:#000000;fill-opacity:1;fill-rule:nonzero;stroke:none"
     id="path3083"
     d="M 558.42681,152.99819 C 558.42681,151.08511 558.42681,150.36667 558.29467,149.10086 L 560.44511,149.10086 L 560.44511,152.45103 L 560.51342,152.45103 C 561.30166,150.50462 562.76862,148.6914 564.99201,148.6914 C 565.50679,148.6914 566.1219,148.79392 566.49552,148.89598 L 566.49552,151.15393 C 566.05359,151.01629 565.47039,150.94706 564.92369,150.94706 C 561.50664,150.94706 560.58178,154.77826 560.58178,157.92136 L 560.58178,166.53738 L 558.42681,166.53738 L 558.42681,152.99819" />
  <path
     style="fill:#000000;fill-opacity:1;fill-rule:nonzero;stroke:none"
     id="path3085"
     d="M 582.29128,157.75007 L 581.67617,157.75007 C 577.94932,157.75007 573.5027,158.12828 573.5027,161.95668 C 573.5027,164.24614 575.14738,165.10258 577.12923,165.10258 C 582.18642,165.10258 582.29128,160.69103 582.29128,158.81124 L 582.29128,157.75007 z M 582.49632,163.73446 L 582.42796,163.73446 C 581.47114,165.81878 579.04281,166.94694 576.88779,166.94694 C 571.93087,166.94694 571.14723,163.59641 571.14723,162.02372 C 571.14723,156.17962 577.37076,155.90586 581.88121,155.90586 L 582.29128,155.90586 L 582.29128,155.01618 C 582.29128,152.04183 581.2297,150.53801 578.32748,150.53801 C 576.51417,150.53801 574.80567,150.94706 573.19744,151.97275 L 573.19744,149.88828 C 574.53232,149.23851 576.78757,148.6914 578.32748,148.6914 C 582.63294,148.6914 584.44625,150.64047 584.44625,155.18727 L 584.44625,162.88021 C 584.44625,164.28172 584.44625,165.3405 584.61479,166.53738 L 582.49632,166.53738 L 582.49632,163.73446" />
  <path
     style="fill:#000000;fill-opacity:1;fill-rule:nonzero;stroke:none"
     id="path3087"
     d="M 191.67017,192.49442 C 190.16631,191.70899 188.01039,191.46883 186.33551,191.46883 C 180.14896,191.46883 176.66036,195.84444 176.66036,201.76011 C 176.66036,207.7754 180.04636,212.04884 186.33551,212.04884 C 187.90834,212.04884 190.30203,211.84391 191.67017,211.02346 L 191.80589,213.07443 C 190.50669,213.8618 187.84132,214.10013 186.33551,214.10013 C 178.81404,214.10013 174.30266,209.14351 174.30266,201.76011 C 174.30266,194.51226 178.952,189.41765 186.33551,189.41765 C 187.73703,189.41765 190.5754,189.65552 191.80589,190.30524 L 191.67017,192.49442" />
  <path
     style="fill:#000000;fill-opacity:1;fill-rule:nonzero;stroke:none"
     id="path3089"
     d="M 206.47281,212.25577 C 210.23468,212.25577 212.25031,209.00781 212.25031,204.97208 C 212.25031,200.9391 210.23468,197.69104 206.47281,197.69104 C 202.71322,197.69104 200.69521,200.9391 200.69521,204.97208 C 200.69521,209.00781 202.71322,212.25577 206.47281,212.25577 z M 206.47281,195.84444 C 212.1145,195.84444 214.61025,200.22055 214.61025,204.97208 C 214.61025,209.72401 212.1145,214.10013 206.47281,214.10013 C 200.83326,214.10013 198.3371,209.72401 198.3371,204.97208 C 198.3371,200.22055 200.83326,195.84444 206.47281,195.84444" />
  <path
     style="fill:#000000;fill-opacity:1;fill-rule:nonzero;stroke:none"
     id="path3091"
     d="M 221.34443,200.3586 C 221.34443,199.02373 221.34443,197.65775 221.20875,196.2542 L 223.29309,196.2542 L 223.29309,199.3663 L 223.36207,199.3663 C 224.07864,197.79351 225.37756,195.84444 229.00148,195.84444 C 233.31044,195.84444 234.95025,198.71668 234.95025,202.54503 L 234.95025,213.69036 L 232.79657,213.69036 L 232.79657,203.09213 C 232.79657,199.81109 231.63528,197.69104 228.6611,197.69104 C 224.72783,197.69104 223.49775,201.14363 223.49775,204.04895 L 223.49775,213.69036 L 221.34443,213.69036 L 221.34443,200.3586" />
  <path
     style="fill:#000000;fill-opacity:1;fill-rule:nonzero;stroke:none"
     id="path3093"
     d="M 244.48917,198.10004 L 240.96786,198.10004 L 240.96786,196.2542 L 244.48917,196.2542 L 244.48917,194.99019 C 244.48917,191.33302 244.62503,187.64002 249.1032,187.64002 C 249.78825,187.64002 250.71189,187.74249 251.12093,187.9825 L 250.98521,189.86239 C 250.54058,189.62228 249.89085,189.48662 249.27437,189.48662 C 246.33577,189.48662 246.64289,192.66571 246.64289,194.75008 L 246.64289,196.2542 L 250.5738,196.2542 L 250.5738,198.10004 L 246.64289,198.10004 L 246.64289,213.69036 L 244.48917,213.69036 L 244.48917,198.10004" />
  <path
     style="fill:#000000;fill-opacity:1;fill-rule:nonzero;stroke:none"
     id="path3095"
     d="M 267.7012,203.74196 C 267.7012,200.69899 266.47071,197.69104 263.25875,197.69104 C 260.07727,197.69104 258.12866,200.87028 258.12866,203.74196 L 267.7012,203.74196 z M 268.76235,213.14325 C 267.25849,213.75974 265.30987,214.10013 263.70105,214.10013 C 257.92395,214.10013 255.77041,210.20244 255.77041,204.97208 C 255.77041,199.63965 258.71119,195.84444 263.1207,195.84444 C 268.04386,195.84444 270.06141,199.81109 270.06141,204.49405 L 270.06141,205.58841 L 258.12866,205.58841 C 258.12866,209.28116 260.11272,212.25577 263.87249,212.25577 C 265.44515,212.25577 267.73687,211.60604 268.76235,210.95647 L 268.76235,213.14325" />
  <path
     style="fill:#000000;fill-opacity:1;fill-rule:nonzero;stroke:none"
     id="path3097"
     d="M 283.32475,212.25577 C 287.15332,212.25577 288.48596,208.15116 288.48596,204.97208 C 288.48596,201.79335 287.15332,197.69104 283.32475,197.69104 C 279.22259,197.69104 278.16144,201.58872 278.16144,204.97208 C 278.16144,208.35814 279.22259,212.25577 283.32475,212.25577 z M 290.64133,213.69036 L 288.48596,213.69036 L 288.48596,210.92089 L 288.41894,210.92089 C 287.25533,213.14325 285.47802,214.10013 282.98227,214.10013 C 278.19698,214.10013 275.80329,210.13541 275.80329,204.97208 C 275.80329,199.67345 277.85432,195.84444 282.98227,195.84444 C 286.40153,195.84444 288.11004,198.34076 288.41894,199.19501 L 288.48596,199.19501 L 288.48596,188.04948 L 290.64133,188.04948 L 290.64133,213.69036" />
  <path
     style="fill:#000000;fill-opacity:1;fill-rule:nonzero;stroke:none"
     id="path3099"
     d="M 309.13477,203.74196 C 309.13477,200.69899 307.90464,197.69104 304.69213,197.69104 C 301.51107,197.69104 299.56209,200.87028 299.56209,203.74196 L 309.13477,203.74196 z M 310.19578,213.14325 C 308.69192,213.75974 306.74331,214.10013 305.13498,214.10013 C 299.35757,214.10013 297.20388,210.20244 297.20388,204.97208 C 297.20388,199.63965 300.14521,195.84444 304.55413,195.84444 C 309.47729,195.84444 311.49516,199.81109 311.49516,204.49405 L 311.49516,205.58841 L 299.56209,205.58841 C 299.56209,209.28116 301.54674,212.25577 305.30642,212.25577 C 306.87903,212.25577 309.1703,211.60604 310.19578,210.95647 L 310.19578,213.14325" />
  <path
     style="fill:#000000;fill-opacity:1;fill-rule:nonzero;stroke:none"
     id="path3101"
     d="M 318.26456,200.15132 C 318.26456,198.23825 318.26456,197.5197 318.12879,196.2542 L 320.28247,196.2542 L 320.28247,199.60417 L 320.34899,199.60417 C 321.13673,197.65775 322.60696,195.84444 324.82939,195.84444 C 325.34099,195.84444 325.95746,195.94701 326.33329,196.04952 L 326.33329,198.30753 C 325.88821,198.16948 325.30773,198.10004 324.76064,198.10004 C 321.34129,198.10004 320.41824,201.9313 320.41824,205.07454 L 320.41824,213.69036 L 318.26456,213.69036 L 318.26456,200.15132" />
  <path
     style="fill:#000000;fill-opacity:1;fill-rule:nonzero;stroke:none"
     id="path3103"
     d="M 342.12819,204.90321 L 341.51176,204.90321 C 337.78579,204.90321 333.34093,205.28126 333.34093,209.10987 C 333.34093,211.39932 334.98251,212.25577 336.96484,212.25577 C 342.02336,212.25577 342.12819,207.84407 342.12819,205.96438 L 342.12819,204.90321 z M 342.33271,210.8875 L 342.26392,210.8875 C 341.30719,212.97197 338.88019,214.10013 336.72474,214.10013 C 331.76818,214.10013 330.98281,210.74955 330.98281,209.17685 C 330.98281,203.33265 337.20494,203.0589 341.71678,203.0589 L 342.12819,203.0589 L 342.12819,202.16922 C 342.12819,199.19501 341.06704,197.69104 338.16176,197.69104 C 336.34841,197.69104 334.6399,198.10004 333.03385,199.12579 L 333.03385,197.04142 C 334.36653,196.39154 336.62227,195.84444 338.16176,195.84444 C 342.46857,195.84444 344.28138,197.79351 344.28138,202.34045 L 344.28138,210.03325 C 344.28138,211.43475 344.28138,212.49353 344.45263,213.69036 L 342.33271,213.69036 L 342.33271,210.8875" />
  <path
     style="fill:#000000;fill-opacity:1;fill-rule:nonzero;stroke:none"
     id="path3105"
     d="M 350.46847,211.87995 L 360.96416,198.10004 L 350.87764,198.10004 L 350.87764,196.2542 L 363.45776,196.2542 L 363.45776,198.10004 L 352.96426,211.84391 L 363.45776,211.84391 L 363.45776,213.69036 L 350.46847,213.69036 L 350.46847,211.87995" />
  <path
     style="fill:#000000;fill-opacity:1;fill-rule:nonzero;stroke:none"
     id="path3107"
     d="M 369.92045,196.2542 L 372.07404,196.2542 L 372.07404,213.69036 L 369.92045,213.69036 L 369.92045,196.2542 z M 372.07404,191.60459 L 369.92045,191.60459 L 369.92045,188.73484 L 372.07404,188.73484 L 372.07404,191.60459" />
  <path
     style="fill:#000000;fill-opacity:1;fill-rule:nonzero;stroke:none"
     id="path3109"
     d="M 393.78176,209.5883 C 393.78176,210.92089 393.78176,212.289 393.91977,213.69036 L 391.83314,213.69036 L 391.83314,210.5805 L 391.76622,210.5805 C 391.04773,212.15106 389.74826,214.10013 386.12439,214.10013 C 381.81762,214.10013 380.17612,211.23023 380.17612,207.39958 L 380.17612,196.2542 L 382.32922,196.2542 L 382.32922,206.85187 C 382.32922,210.13541 383.49287,212.25577 386.46701,212.25577 C 390.398,212.25577 391.62812,208.80094 391.62812,205.89546 L 391.62812,196.2542 L 393.78176,196.2542 L 393.78176,209.5883" />
  <path
     style="fill:#000000;fill-opacity:1;fill-rule:nonzero;stroke:none"
     id="path3111"
     d="M 401.8505,200.3586 C 401.8505,199.02373 401.8505,197.65775 401.71463,196.2542 L 403.79907,196.2542 L 403.79907,199.3663 L 403.86836,199.3663 C 404.58457,197.79351 405.88345,195.84444 409.50778,195.84444 C 413.81696,195.84444 415.45618,198.71668 415.45618,202.54503 L 415.45618,213.69036 L 413.303,213.69036 L 413.303,203.09213 C 413.303,199.81109 412.14167,197.69104 409.16744,197.69104 C 405.23422,197.69104 404.00368,201.14363 404.00368,204.04895 L 404.00368,213.69036 L 401.8505,213.69036 L 401.8505,200.3586" />
  <path
     style="fill:#000000;fill-opacity:1;fill-rule:nonzero;stroke:none"
     id="path3113"
     d="M 434.02065,211.16084 C 435.32007,211.81072 436.89272,212.25577 438.56802,212.25577 C 440.6191,212.25577 442.42976,211.12541 442.42976,209.14351 C 442.42976,205.00792 434.0544,205.65723 434.0544,200.59637 C 434.0544,197.14389 436.85718,195.84444 439.72936,195.84444 C 440.65236,195.84444 442.49901,196.04952 444.03613,196.63226 L 443.83161,198.512 C 442.70353,197.99814 441.16638,197.69104 439.96946,197.69104 C 437.74698,197.69104 436.20754,198.37395 436.20754,200.59637 C 436.20754,203.84443 444.78787,203.43487 444.78787,209.14351 C 444.78787,212.83611 441.33536,214.10013 438.70384,214.10013 C 437.02859,214.10013 435.35329,213.89504 433.81608,213.28131 L 434.02065,211.16084" />
  <path
     style="fill:#000000;fill-opacity:1;fill-rule:nonzero;stroke:none"
     id="path3115"
     d="M 457.37027,213.69036 L 454.84131,213.69036 L 448.92566,196.2542 L 451.28619,196.2542 L 456.10688,211.33229 L 456.1734,211.33229 L 461.23474,196.2542 L 463.49048,196.2542 L 457.37027,213.69036" />
  <path
     style="fill:#000000;fill-opacity:1;fill-rule:nonzero;stroke:none"
     id="path3117"
     d="M 469.16543,196.2542 L 471.31907,196.2542 L 471.31907,213.69036 L 469.16543,213.69036 L 469.16543,196.2542 z M 471.31907,191.60459 L 469.16543,191.60459 L 469.16543,188.73484 L 471.31907,188.73484 L 471.31907,191.60459" />
  <path
     style="fill:#000000;fill-opacity:1;fill-rule:nonzero;stroke:none"
     id="path3119"
     d="M 477.81465,211.87995 L 488.31038,198.10004 L 478.2241,198.10004 L 478.2241,196.2542 L 490.80422,196.2542 L 490.80422,198.10004 L 480.31081,211.84391 L 490.80422,211.84391 L 490.80422,213.69036 L 477.81465,213.69036 L 477.81465,211.87995" />
  <path
     style="fill:#000000;fill-opacity:1;fill-rule:nonzero;stroke:none"
     id="path3121"
     d="M 497.26659,200.15132 C 497.26659,198.23825 497.26659,197.5197 497.12991,196.2542 L 499.28491,196.2542 L 499.28491,199.60417 L 499.35325,199.60417 C 500.13689,197.65775 501.60848,195.84444 503.83178,195.84444 C 504.34206,195.84444 504.95717,195.94701 505.33528,196.04952 L 505.33528,198.30753 C 504.88883,198.16948 504.31022,198.10004 503.76344,198.10004 C 500.34191,198.10004 499.42159,201.9313 499.42159,205.07454 L 499.42159,213.69036 L 497.26659,213.69036 L 497.26659,200.15132" />
  <path
     d="M 521.13105,204.90323 L 520.51598,204.90323 C 516.7891,204.90323 512.34246,205.28129 512.34246,209.10986 C 512.34246,211.39931 513.98263,212.25576 515.9692,212.25576 C 521.02626,212.25576 521.13105,207.84406 521.13105,205.96438 L 521.13105,204.90323 z M 521.33602,210.88749 L 521.26773,210.88749 C 520.31096,212.97197 517.88264,214.10013 515.72764,214.10013 C 510.77067,214.10013 509.98699,210.74958 509.98699,209.17688 C 509.98699,203.33267 516.20597,203.0589 520.71649,203.0589 L 521.13105,203.0589 L 521.13105,202.1692 C 521.13105,199.19502 520.06944,197.69103 517.16269,197.69103 C 515.34944,197.69103 513.64093,198.10007 512.03716,199.12577 L 512.03716,197.04143 C 513.36756,196.39156 515.6228,195.84442 517.16269,195.84442 C 521.4727,195.84442 523.28149,197.7935 523.28149,202.34046 L 523.28149,210.03323 C 523.28149,211.43476 523.28149,212.49354 523.45467,213.69036 L 521.33602,213.69036 L 521.33602,210.88749"
     id="path3131"
     style="fill:#000000;fill-opacity:1;fill-rule:nonzero;stroke:none" />
  <path
     d="M 135.51619,47.31729 C 135.51619,47.31729 117.4343,39.397628 87.161694,39.397628 L 87.152536,39.397628 C 56.879701,39.397628 38.79348,47.31729 38.79348,47.31729 C 38.79348,47.31729 37.174083,82.381842 44.03916,102.20801 C 56.163493,137.06804 87.14839,146.86069 87.14839,146.86069 L 87.157138,146.86069 L 87.166159,146.86069 C 87.166159,146.86069 118.14632,137.06804 130.27498,102.20801 C 137.13987,82.381842 135.51619,47.31729 135.51619,47.31729"
     id="path3133"
     style="fill:#ff0000;fill-opacity:1;fill-rule:nonzero;stroke:none" />
  <path
     style="fill:#ffffff;fill-opacity:1;fill-rule:nonzero;stroke:none"
     id="path3135"
     d="M 119.29394,77.54553 L 119.29394,96.86413 L 96.75442,96.86413 L 96.75442,119.40433 L 77.435244,119.40433 L 77.435244,96.86413 L 54.895457,96.86413 L 54.895457,77.54553 L 77.435244,77.54553 L 77.435244,55.01008 L 96.749864,55.01008 L 96.75442,77.54553 L 119.29394,77.54553" />
</svg>
