<?xml version="1.0" encoding="UTF-8" standalone="no"?><svg xmlns="http://www.w3.org/2000/svg" xmlns:xlink="http://www.w3.org/1999/xlink" contentStyleType="text/css" height="611px" preserveAspectRatio="none" style="width:886px;height:611px;background:#FFFFFF;" version="1.1" viewBox="0 0 886 611" width="886px" zoomAndPan="magnify"><defs/><g><!--entity always--><g id="elem_always"><rect fill="#F1F1F1" height="22.4883" rx="2.5" ry="2.5" style="stroke:#181818;stroke-width:0.5;" width="65" x="295" y="14"/><text fill="#000000" font-family="sans-serif" font-size="14" lengthAdjust="spacing" textLength="45" x="305" y="30.5352">always</text></g><!--entity src_eve--><g id="elem_src_eve"><path d="M246,73.5 L246,104.9883 A2.5,2.5 0 0 0 248.5,107.4883 L406.5,107.4883 A2.5,2.5 0 0 0 409,104.9883 L409,81 L399,71 L248.5,71 A2.5,2.5 0 0 0 246,73.5 " fill="#DDA0DD" style="stroke:#BA55D3;stroke-width:0.5;"/><path d="M399,71 L399,78.5 A2.5,2.5 0 0 0 401.5,81 L409,81 " fill="#DDA0DD" style="stroke:#BA55D3;stroke-width:0.5;"/><text fill="#000000" font-family="sans-serif" font-size="14" lengthAdjust="spacing" textLength="143" x="256" y="94.5352">eve sources changed</text></g><!--entity src_car--><g id="elem_src_car"><path d="M226.5,144.5 L226.5,175.9883 A2.5,2.5 0 0 0 229,178.4883 L426,178.4883 A2.5,2.5 0 0 0 428.5,175.9883 L428.5,152 L418.5,142 L229,142 A2.5,2.5 0 0 0 226.5,144.5 " fill="#FFD700" style="stroke:#B8860B;stroke-width:0.5;"/><path d="M418.5,142 L418.5,149.5 A2.5,2.5 0 0 0 421,152 L428.5,152 " fill="#FFD700" style="stroke:#B8860B;stroke-width:0.5;"/><text fill="#000000" font-family="sans-serif" font-size="14" lengthAdjust="spacing" textLength="182" x="236.5" y="165.5352">cartesian sources changed</text></g><!--entity src_nxt--><g id="elem_src_nxt"><path d="M242,215.5 L242,246.9883 A2.5,2.5 0 0 0 244.5,249.4883 L410.5,249.4883 A2.5,2.5 0 0 0 413,246.9883 L413,223 L403,213 L244.5,213 A2.5,2.5 0 0 0 242,215.5 " fill="#C2F0FF" style="stroke:#6495ED;stroke-width:0.5;"/><path d="M403,213 L403,220.5 A2.5,2.5 0 0 0 405.5,223 L413,223 " fill="#C2F0FF" style="stroke:#6495ED;stroke-width:0.5;"/><text fill="#000000" font-family="sans-serif" font-size="14" lengthAdjust="spacing" textLength="151" x="252" y="236.5352">next sources changed</text></g><!--entity src_sto--><g id="elem_src_sto"><path d="M231.5,286.5 L231.5,317.9883 A2.5,2.5 0 0 0 234,320.4883 L421,320.4883 A2.5,2.5 0 0 0 423.5,317.9883 L423.5,294 L413.5,284 L234,284 A2.5,2.5 0 0 0 231.5,286.5 " fill="#7FFFD4" style="stroke:#008B8B;stroke-width:0.5;"/><path d="M413.5,284 L413.5,291.5 A2.5,2.5 0 0 0 416,294 L423.5,294 " fill="#7FFFD4" style="stroke:#008B8B;stroke-width:0.5;"/><text fill="#000000" font-family="sans-serif" font-size="14" lengthAdjust="spacing" textLength="172" x="241.5" y="307.5352">storage sources changed</text></g><!--entity src_cab--><g id="elem_src_cab"><path d="M195.5,357.5 L195.5,388.9883 A2.5,2.5 0 0 0 198,391.4883 L457,391.4883 A2.5,2.5 0 0 0 459.5,388.9883 L459.5,365 L449.5,355 L198,355 A2.5,2.5 0 0 0 195.5,357.5 " fill="#FFD700" style="stroke:#B8860B;stroke-width:0.5;"/><path d="M449.5,355 L449.5,362.5 A2.5,2.5 0 0 0 452,365 L459.5,365 " fill="#FFD700" style="stroke:#B8860B;stroke-width:0.5;"/><text fill="#000000" font-family="sans-serif" font-size="14" lengthAdjust="spacing" textLength="244" x="205.5" y="378.5352">cartesian backend sources changed</text></g><!--entity cfg_wfl--><g id="elem_cfg_wfl"><path d="M251,428.5 L251,459.9883 A2.5,2.5 0 0 0 253.5,462.4883 L401.5,462.4883 A2.5,2.5 0 0 0 404,459.9883 L404,436 L394,426 L253.5,426 A2.5,2.5 0 0 0 251,428.5 " fill="#FF7F50" style="stroke:#FF6347;stroke-width:0.5;"/><path d="M394,426 L394,433.5 A2.5,2.5 0 0 0 396.5,436 L404,436 " fill="#FF7F50" style="stroke:#FF6347;stroke-width:0.5;"/><text fill="#000000" font-family="sans-serif" font-size="14" lengthAdjust="spacing" textLength="133" x="261" y="449.5352">workflows changed</text></g><!--entity other--><g id="elem_other"><path d="M6,499.5 L6,530.9883 A2.5,2.5 0 0 0 8.5,533.4883 L646.5,533.4883 A2.5,2.5 0 0 0 649,530.9883 L649,507 L639,497 L8.5,497 A2.5,2.5 0 0 0 6,499.5 " fill="#98FB98" style="stroke:#228B22;stroke-width:0.5;"/><path d="M639,497 L639,504.5 A2.5,2.5 0 0 0 641.5,507 L649,507 " fill="#98FB98" style="stroke:#228B22;stroke-width:0.5;"/><text fill="#000000" font-family="sans-serif" font-size="14" lengthAdjust="spacing" textLength="623" x="16" y="520.5352">other files changed, excluding examples (the examples folder) and docs (.md and .rst files)</text></g><!--entity pkg_cfg--><g id="elem_pkg_cfg"><path d="M218,570.5 L218,601.9883 A2.5,2.5 0 0 0 220.5,604.4883 L434.5,604.4883 A2.5,2.5 0 0 0 437,601.9883 L437,578 L427,568 L220.5,568 A2.5,2.5 0 0 0 218,570.5 " fill="#98FB98" style="stroke:#228B22;stroke-width:0.5;"/><path d="M427,568 L427,575.5 A2.5,2.5 0 0 0 429.5,578 L437,578 " fill="#98FB98" style="stroke:#228B22;stroke-width:0.5;"/><text fill="#000000" font-family="sans-serif" font-size="14" lengthAdjust="spacing" textLength="199" x="228" y="591.5352">package config files changed</text></g><!--entity eve--><g id="elem_eve"><rect fill="#DDA0DD" height="36.4883" rx="2.5" ry="2.5" style="stroke:#BA55D3;stroke-width:0.5;" width="87" x="751" y="426"/><text fill="#000000" font-family="sans-serif" font-size="14" lengthAdjust="spacing" textLength="67" x="761" y="449.5352">Test / Eve</text></g><!--entity car--><g id="elem_car"><rect fill="#FFD700" height="36.4883" rx="2.5" ry="2.5" style="stroke:#B8860B;stroke-width:0.5;" width="171" x="709" y="213"/><text fill="#000000" font-family="sans-serif" font-size="14" lengthAdjust="spacing" textLength="151" x="719" y="236.5352">Test / Cartesian (CPU)</text></g><!--entity nxt--><g id="elem_nxt"><rect fill="#C2F0FF" height="36.4883" rx="2.5" ry="2.5" style="stroke:#6495ED;stroke-width:0.5;" width="138" x="725.5" y="284"/><text fill="#000000" font-family="sans-serif" font-size="14" lengthAdjust="spacing" textLength="118" x="735.5" y="307.5352">Test / Next (CPU)</text></g><!--entity sto--><g id="elem_sto"><rect fill="#7FFFD4" height="36.4883" rx="2.5" ry="2.5" style="stroke:#008B8B;stroke-width:0.5;" width="159" x="715" y="355"/><text fill="#000000" font-family="sans-serif" font-size="14" lengthAdjust="spacing" textLength="139" x="725" y="378.5352">Test / Storage (CPU)</text></g><!--entity qua--><g id="elem_qua"><rect fill="#F1F1F1" height="36.4883" rx="2.5" ry="2.5" style="stroke:#181818;stroke-width:0.5;" width="108" x="740.5" y="7"/><text fill="#000000" font-family="sans-serif" font-size="14" lengthAdjust="spacing" textLength="88" x="750.5" y="30.5352">Code Quality</text></g><!--link always to src_eve--><!--link src_eve to src_car--><!--link src_car to src_nxt--><!--link src_nxt to src_sto--><!--link src_sto to src_cab--><!--link src_cab to cfg_wfl--><!--link cfg_wfl to other--><!--link always to qua--><g id="link_always_qua"><path codeLine="66" d="M360.34,25 C360.34,25 733.57,25 733.57,25 " fill="none" id="always-to-qua" style="stroke:#181818;stroke-width:1.0;"/><polygon fill="#181818" points="738.57,25,729.57,21,733.57,25,729.57,29,738.57,25" style="stroke:#181818;stroke-width:1.0;"/></g><!--link src_eve to car--><g id="link_src_eve_car"><path codeLine="68" d="M409.38,80 C525.74,80 725,80 725,80 C725,80 725,206.27 725,206.27 " fill="none" id="src_eve-to-car" style="stroke:#BA55D3;stroke-width:2.0;"/><polygon fill="#BA55D3" points="725,211.27,729,202.27,725,206.27,721,202.27,725,211.27" style="stroke:#BA55D3;stroke-width:2.0;"/></g><!--link src_car to car--><g id="link_src_car_car"><path codeLine="69" d="M417,178.34 C417,195.66 417,219 417,219 C417,219 702.33,219 702.33,219 " fill="none" id="src_car-to-car" style="stroke:#B8860B;stroke-width:2.0;"/><polygon fill="#B8860B" points="707.33,219,698.33,215,702.33,219,698.33,223,707.33,219" style="stroke:#B8860B;stroke-width:2.0;"/></g><!--link src_sto to car--><g id="link_src_sto_car"><path codeLine="70" d="M420,283.75 C420,260.98 420,225 420,225 C420,225 702.07,225 702.07,225 " fill="none" id="src_sto-to-car" style="stroke:#008B8B;stroke-width:2.0;"/><polygon fill="#008B8B" points="707.07,225,698.07,221,702.07,225,698.07,229,707.07,225" style="stroke:#008B8B;stroke-width:2.0;"/></g><!--link cfg_wfl to car--><g id="link_cfg_wfl_car"><path codeLine="71" d="M404.49,432 C459.19,432 523,432 523,432 C523,432 523,237 523,237 C523,237 702.08,237 702.08,237 " fill="none" id="cfg_wfl-to-car" style="stroke:#FF6347;stroke-width:2.0;"/><polygon fill="#FF6347" points="707.08,237,698.08,233,702.08,237,698.08,241,707.08,237" style="stroke:#FF6347;stroke-width:2.0;"/></g><!--link other to car--><g id="link_other_car"><path codeLine="72" d="M555,496.73 C555,435.75 555,243 555,243 C555,243 702.2,243 702.2,243 " fill="none" id="other-to-car" style="stroke:#228B22;stroke-width:2.0;"/><polygon fill="#228B22" points="707.2,243,698.2,239,702.2,243,698.2,247,707.2,243" style="stroke:#228B22;stroke-width:2.0;"/></g><!--link src_eve to eve--><g id="link_src_eve_eve"><path codeLine="74" d="M409.27,89 C450.55,89 492,89 492,89 C492,89 492,444 492,444 C492,444 744,444 744,444 " fill="none" id="src_eve-to-eve" style="stroke:#BA55D3;stroke-width:2.0;"/><polygon fill="#BA55D3" points="749,444,740,440,744,444,740,448,749,444" style="stroke:#BA55D3;stroke-width:2.0;"/></g><!--link cfg_wfl to eve--><g id="link_cfg_wfl_eve"><path codeLine="75" d="M404.35,456 C404.35,456 744.12,456 744.12,456 " fill="none" id="cfg_wfl-to-eve" style="stroke:#FF6347;stroke-width:2.0;"/><polygon fill="#FF6347" points="749.12,456,740.12,452,744.12,456,740.12,460,749.12,456" style="stroke:#FF6347;stroke-width:2.0;"/></g><!--link pkg_cfg to eve--><g id="link_pkg_cfg_eve"><path codeLine="76" d="M437.4,592 C575.6,592 795,592 795,592 C795,592 795,468.96 795,468.96 " fill="none" id="pkg_cfg-to-eve" style="stroke:#228B22;stroke-width:2.0;"/><polygon fill="#228B22" points="795,463.96,791,472.96,795,468.96,799,472.96,795,463.96" style="stroke:#228B22;stroke-width:2.0;"/></g><!--link src_eve to nxt--><g id="link_src_eve_nxt"><path codeLine="78" d="M409.21,98 C431.68,98 450,98 450,98 C450,98 450,289.14 450,289.14 C450,289.14 718.69,289.14 718.69,289.14 " fill="none" id="src_eve-to-nxt" style="stroke:#BA55D3;stroke-width:2.0;"/><polygon fill="#BA55D3" points="723.69,289.14,714.69,285.14,718.69,289.14,714.69,293.14,723.69,289.14" style="stroke:#BA55D3;stroke-width:2.0;"/></g><!--link src_nxt to nxt--><g id="link_src_nxt_nxt"><path codeLine="79" d="M413.42,231 C428.25,231 439,231 439,231 C439,231 439,294.29 439,294.29 C439,294.29 718.6,294.29 718.6,294.29 " fill="none" id="src_nxt-to-nxt" style="stroke:#6495ED;stroke-width:2.0;"/><polygon fill="#6495ED" points="723.6,294.29,714.6,290.29,718.6,294.29,714.6,298.29,723.6,294.29" style="stroke:#6495ED;stroke-width:2.0;"/></g><!--link src_sto to nxt--><g id="link_src_sto_nxt"><path codeLine="80" d="M423.98,299.43 C423.98,299.43 718.55,299.43 718.55,299.43 " fill="none" id="src_sto-to-nxt" style="stroke:#008B8B;stroke-width:2.0;"/><polygon fill="#008B8B" points="723.55,299.43,714.55,295.43,718.55,299.43,714.55,303.43,723.55,299.43" style="stroke:#008B8B;stroke-width:2.0;"/></g><!--link cfg_wfl to nxt--><g id="link_cfg_wfl_nxt"><path codeLine="81" d="M404.36,438 C480.56,438 586,438 586,438 C586,438 586,309.71 586,309.71 C586,309.71 718.56,309.71 718.56,309.71 " fill="none" id="cfg_wfl-to-nxt" style="stroke:#FF6347;stroke-width:2.0;"/><polygon fill="#FF6347" points="723.56,309.71,714.56,305.71,718.56,309.71,714.56,313.71,723.56,309.71" style="stroke:#FF6347;stroke-width:2.0;"/></g><!--link other to nxt--><g id="link_other_nxt"><path codeLine="82" d="M618,496.53 C618,446.98 618,314.86 618,314.86 C618,314.86 718.74,314.86 718.74,314.86 " fill="none" id="other-to-nxt" style="stroke:#228B22;stroke-width:2.0;"/><polygon fill="#228B22" points="723.74,314.86,714.74,310.86,718.74,314.86,714.74,318.86,723.74,314.86" style="stroke:#228B22;stroke-width:2.0;"/></g><!--link src_sto to sto--><g id="link_src_sto_sto"><path codeLine="84" d="M423.76,304.57 C540.26,304.57 721,304.57 721,304.57 C721,304.57 721,348.15 721,348.15 " fill="none" id="src_sto-to-sto" style="stroke:#008B8B;stroke-width:2.0;"/><polygon fill="#008B8B" points="721,353.15,725,344.15,721,348.15,717,344.15,721,353.15" style="stroke:#008B8B;stroke-width:2.0;"/></g><!--link src_cab to sto--><g id="link_src_cab_sto"><path codeLine="85" d="M459.76,373 C459.76,373 708.08,373 708.08,373 " fill="none" id="src_cab-to-sto" style="stroke:#B8860B;stroke-width:2.0;"/><polygon fill="#B8860B" points="713.08,373,704.08,369,708.08,373,704.08,377,713.08,373" style="stroke:#B8860B;stroke-width:2.0;"/></g><!--link cfg_wfl to sto--><g id="link_cfg_wfl_sto"><path codeLine="86" d="M404.05,450 C520.06,450 727,450 727,450 C727,450 727,397.76 727,397.76 " fill="none" id="cfg_wfl-to-sto" style="stroke:#FF6347;stroke-width:2.0;"/><polygon fill="#FF6347" points="727,392.76,723,401.76,727,397.76,731,401.76,727,392.76" style="stroke:#FF6347;stroke-width:2.0;"/></g><!--link pkg_cfg to sto--><g id="link_pkg_cfg_sto"><path codeLine="87" d="M437.23,580 C559.13,580 739,580 739,580 C739,580 739,397.88 739,397.88 " fill="none" id="pkg_cfg-to-sto" style="stroke:#228B22;stroke-width:2.0;"/><polygon fill="#228B22" points="739,392.88,735,401.88,739,397.88,743,401.88,739,392.88" style="stroke:#228B22;stroke-width:2.0;"/></g><!--SRC=[bLHDRzim3BthLsZmOGtG3s3egTqAPDvQ5DZQRCjEGH0eCcqBbYLFbflctvUAuYHQajevsJAV7ld8Hqj8BRMQ6f7bbYR20BT2Ar8NGbNCi99AeS0kAw3Qs5mJyl63K5ms2T3FyVLLV3sBTLbf1ShU4SAPIIYJ2xQiwOJu5p8bgP10QyDdy08q6iccl7MqDpyX4KtvR7WkabiBh_PcBXalyAe3rhen76hASwOoI7PvC0-D7hHCFCytPWft0lLR_qU4I0krOEezElLgQJGSZNuyniFnu_EJPusrKVTIBy1ybGs4j0eFxp7MsDDe-AzX9JF8jIqpNZ8LKY7KiAn3xlnakNFy02evHilJRBP89OrG9PEUTwnBPlKEuOGij2bIxC7UVMrpm1cCc8G70w0ymxqsK5l_8QZBmztD3TCvXLTd9A4oV6DbvM9dYDkUKYVI32X37Odc6BuiazNfqjJMqmtQYgeYcw6g_ZLL-72Dvrgb8WkBGrA2CMLfRykECGkzejzV02_xk_rjkhuSRyPt5e_-3ZP4fnjqJVZaV1fodM3DDScVjKD37cH0IApnJ_2hOLBOvQffVldfnGGRX4gdvkAkNNtI_WBsWjWeqkxrNX35atPBzuAeXhGBTu1sJjhz2O9hzvDs2uBWogixIXByXcB9JldHhWtERIvueQ2kltoQEd2e9Wh6VXJi1KJj80xYjkL6VbSFelokkH54Ezu_2EqjoKslExj3jMlOaTr1UsSF7H25lZ-AxkgemtLhSgYU7NNGNfbRqtfVTXZ4WRlBTAYUhNVGDm00]--></g></svg>