<?xml version="1.0" encoding="UTF-8" standalone="no"?><svg xmlns="http://www.w3.org/2000/svg" xmlns:xlink="http://www.w3.org/1999/xlink" contentStyleType="text/css" height="809px" preserveAspectRatio="none" style="width:451px;height:809px;background:#FFFFFF;" version="1.1" viewBox="0 0 451 809" width="451px" zoomAndPan="magnify"><defs/><g><!--entity src_eve--><g id="elem_src_eve"><path d="M25.5,80.5 L25.5,111.9883 A2.5,2.5 0 0 0 28,114.4883 L186,114.4883 A2.5,2.5 0 0 0 188.5,111.9883 L188.5,88 L178.5,78 L28,78 A2.5,2.5 0 0 0 25.5,80.5 " fill="#F1F1F1" style="stroke:#181818;stroke-width:0.5;"/><path d="M178.5,78 L178.5,85.5 A2.5,2.5 0 0 0 181,88 L188.5,88 " fill="#F1F1F1" style="stroke:#181818;stroke-width:0.5;"/><text fill="#000000" font-family="sans-serif" font-size="14" lengthAdjust="spacing" textLength="23" x="35.5" y="101.5352">eve</text><text fill="#000000" font-family="sans-serif" font-size="14" lengthAdjust="spacing" textLength="4" x="58.5" y="101.5352"> </text><text fill="#000000" font-family="sans-serif" font-size="14" lengthAdjust="spacing" textLength="53" x="62.5" y="101.5352">sources</text><text fill="#000000" font-family="sans-serif" font-size="14" lengthAdjust="spacing" textLength="4" x="115.5" y="101.5352"> </text><text fill="#000000" font-family="sans-serif" font-size="14" lengthAdjust="spacing" textLength="59" x="119.5" y="101.5352">changed</text></g><!--entity src_car--><g id="elem_src_car"><path d="M6,199.5 L6,230.9883 A2.5,2.5 0 0 0 8.5,233.4883 L205.5,233.4883 A2.5,2.5 0 0 0 208,230.9883 L208,207 L198,197 L8.5,197 A2.5,2.5 0 0 0 6,199.5 " fill="#F1F1F1" style="stroke:#181818;stroke-width:0.5;"/><path d="M198,197 L198,204.5 A2.5,2.5 0 0 0 200.5,207 L208,207 " fill="#F1F1F1" style="stroke:#181818;stroke-width:0.5;"/><text fill="#000000" font-family="sans-serif" font-size="14" lengthAdjust="spacing" textLength="62" x="16" y="220.5352">cartesian</text><text fill="#000000" font-family="sans-serif" font-size="14" lengthAdjust="spacing" textLength="4" x="78" y="220.5352"> </text><text fill="#000000" font-family="sans-serif" font-size="14" lengthAdjust="spacing" textLength="53" x="82" y="220.5352">sources</text><text fill="#000000" font-family="sans-serif" font-size="14" lengthAdjust="spacing" textLength="4" x="135" y="220.5352"> </text><text fill="#000000" font-family="sans-serif" font-size="14" lengthAdjust="spacing" textLength="59" x="139" y="220.5352">changed</text></g><!--entity src_nxt--><g id="elem_src_nxt"><path d="M21.5,353.5 L21.5,384.9883 A2.5,2.5 0 0 0 24,387.4883 L190,387.4883 A2.5,2.5 0 0 0 192.5,384.9883 L192.5,361 L182.5,351 L24,351 A2.5,2.5 0 0 0 21.5,353.5 " fill="#F1F1F1" style="stroke:#181818;stroke-width:0.5;"/><path d="M182.5,351 L182.5,358.5 A2.5,2.5 0 0 0 185,361 L192.5,361 " fill="#F1F1F1" style="stroke:#181818;stroke-width:0.5;"/><text fill="#000000" font-family="sans-serif" font-size="14" lengthAdjust="spacing" textLength="31" x="31.5" y="374.5352">next</text><text fill="#000000" font-family="sans-serif" font-size="14" lengthAdjust="spacing" textLength="4" x="62.5" y="374.5352"> </text><text fill="#000000" font-family="sans-serif" font-size="14" lengthAdjust="spacing" textLength="53" x="66.5" y="374.5352">sources</text><text fill="#000000" font-family="sans-serif" font-size="14" lengthAdjust="spacing" textLength="4" x="119.5" y="374.5352"> </text><text fill="#000000" font-family="sans-serif" font-size="14" lengthAdjust="spacing" textLength="59" x="123.5" y="374.5352">changed</text></g><!--entity src_sto--><g id="elem_src_sto"><path d="M11,424.5 L11,455.9883 A2.5,2.5 0 0 0 13.5,458.4883 L200.5,458.4883 A2.5,2.5 0 0 0 203,455.9883 L203,432 L193,422 L13.5,422 A2.5,2.5 0 0 0 11,424.5 " fill="#F1F1F1" style="stroke:#181818;stroke-width:0.5;"/><path d="M193,422 L193,429.5 A2.5,2.5 0 0 0 195.5,432 L203,432 " fill="#F1F1F1" style="stroke:#181818;stroke-width:0.5;"/><text fill="#000000" font-family="sans-serif" font-size="14" lengthAdjust="spacing" textLength="52" x="21" y="445.5352">storage</text><text fill="#000000" font-family="sans-serif" font-size="14" lengthAdjust="spacing" textLength="4" x="73" y="445.5352"> </text><text fill="#000000" font-family="sans-serif" font-size="14" lengthAdjust="spacing" textLength="53" x="77" y="445.5352">sources</text><text fill="#000000" font-family="sans-serif" font-size="14" lengthAdjust="spacing" textLength="4" x="130" y="445.5352"> </text><text fill="#000000" font-family="sans-serif" font-size="14" lengthAdjust="spacing" textLength="59" x="134" y="445.5352">changed</text></g><!--entity src_cab--><g id="elem_src_cab"><path d="M6.5,496 L6.5,543.9766 A2.5,2.5 0 0 0 9,546.4766 L205,546.4766 A2.5,2.5 0 0 0 207.5,543.9766 L207.5,503.5 L197.5,493.5 L9,493.5 A2.5,2.5 0 0 0 6.5,496 " fill="#F1F1F1" style="stroke:#181818;stroke-width:0.5;"/><path d="M197.5,493.5 L197.5,501 A2.5,2.5 0 0 0 200,503.5 L207.5,503.5 " fill="#F1F1F1" style="stroke:#181818;stroke-width:0.5;"/><text fill="#000000" font-family="sans-serif" font-size="14" lengthAdjust="spacing" textLength="62" x="16.5" y="517.0352">cartesian</text><text fill="#000000" font-family="sans-serif" font-size="14" lengthAdjust="spacing" textLength="4" x="78.5" y="517.0352"> </text><text fill="#000000" font-family="sans-serif" font-size="14" lengthAdjust="spacing" textLength="58" x="82.5" y="517.0352">backend</text><text fill="#000000" font-family="sans-serif" font-size="14" lengthAdjust="spacing" textLength="4" x="140.5" y="517.0352"> </text><text fill="#000000" font-family="sans-serif" font-size="14" lengthAdjust="spacing" textLength="53" x="144.5" y="517.0352">sources</text><text fill="#000000" font-family="sans-serif" font-size="14" lengthAdjust="spacing" textLength="59" x="77.5" y="533.5234">changed</text></g><!--entity cfg_wfl--><g id="elem_cfg_wfl"><path d="M30.5,584.5 L30.5,615.9883 A2.5,2.5 0 0 0 33,618.4883 L181,618.4883 A2.5,2.5 0 0 0 183.5,615.9883 L183.5,592 L173.5,582 L33,582 A2.5,2.5 0 0 0 30.5,584.5 " fill="#F1F1F1" style="stroke:#181818;stroke-width:0.5;"/><path d="M173.5,582 L173.5,589.5 A2.5,2.5 0 0 0 176,592 L183.5,592 " fill="#F1F1F1" style="stroke:#181818;stroke-width:0.5;"/><text fill="#000000" font-family="sans-serif" font-size="14" lengthAdjust="spacing" textLength="70" x="40.5" y="605.5352">workflows</text><text fill="#000000" font-family="sans-serif" font-size="14" lengthAdjust="spacing" textLength="4" x="110.5" y="605.5352"> </text><text fill="#000000" font-family="sans-serif" font-size="14" lengthAdjust="spacing" textLength="59" x="114.5" y="605.5352">changed</text></g><!--entity other--><g id="elem_other"><path d="M31,655.5 L31,686.9883 A2.5,2.5 0 0 0 33.5,689.4883 L180.5,689.4883 A2.5,2.5 0 0 0 183,686.9883 L183,663 L173,653 L33.5,653 A2.5,2.5 0 0 0 31,655.5 " fill="#F1F1F1" style="stroke:#181818;stroke-width:0.5;"/><path d="M173,653 L173,660.5 A2.5,2.5 0 0 0 175.5,663 L183,663 " fill="#F1F1F1" style="stroke:#181818;stroke-width:0.5;"/><text fill="#000000" font-family="sans-serif" font-size="14" lengthAdjust="spacing" textLength="37" x="41" y="676.5352">other</text><text fill="#000000" font-family="sans-serif" font-size="14" lengthAdjust="spacing" textLength="4" x="78" y="676.5352"> </text><text fill="#000000" font-family="sans-serif" font-size="14" lengthAdjust="spacing" textLength="28" x="82" y="676.5352">files</text><text fill="#000000" font-family="sans-serif" font-size="14" lengthAdjust="spacing" textLength="4" x="110" y="676.5352"> </text><text fill="#000000" font-family="sans-serif" font-size="14" lengthAdjust="spacing" textLength="59" x="114" y="676.5352">changed</text></g><!--entity eve--><g id="elem_eve"><rect fill="#F1F1F1" height="36.4883" rx="2.5" ry="2.5" style="stroke:#181818;stroke-width:0.5;" width="87" x="316" y="29"/><text fill="#000000" font-family="sans-serif" font-size="14" lengthAdjust="spacing" textLength="29" x="326" y="52.5352">Test</text><text fill="#000000" font-family="sans-serif" font-size="14" lengthAdjust="spacing" textLength="4" x="355" y="52.5352"> </text><text fill="#000000" font-family="sans-serif" font-size="14" lengthAdjust="spacing" textLength="7" x="359" y="52.5352">/</text><text fill="#000000" font-family="sans-serif" font-size="14" lengthAdjust="spacing" textLength="4" x="366" y="52.5352"> </text><text fill="#000000" font-family="sans-serif" font-size="14" lengthAdjust="spacing" textLength="23" x="370" y="52.5352">Eve</text></g><!--entity car--><g id="elem_car"><rect fill="#F1F1F1" height="36.4883" rx="2.5" ry="2.5" style="stroke:#181818;stroke-width:0.5;" width="171" x="274" y="253"/><text fill="#000000" font-family="sans-serif" font-size="14" lengthAdjust="spacing" textLength="29" x="284" y="276.5352">Test</text><text fill="#000000" font-family="sans-serif" font-size="14" lengthAdjust="spacing" textLength="4" x="313" y="276.5352"> </text><text fill="#000000" font-family="sans-serif" font-size="14" lengthAdjust="spacing" textLength="7" x="317" y="276.5352">/</text><text fill="#000000" font-family="sans-serif" font-size="14" lengthAdjust="spacing" textLength="4" x="324" y="276.5352"> </text><text fill="#000000" font-family="sans-serif" font-size="14" lengthAdjust="spacing" textLength="65" x="328" y="276.5352">Cartesian</text><text fill="#000000" font-family="sans-serif" font-size="14" lengthAdjust="spacing" textLength="4" x="393" y="276.5352"> </text><text fill="#000000" font-family="sans-serif" font-size="14" lengthAdjust="spacing" textLength="38" x="397" y="276.5352">(CPU)</text></g><!--entity nxt--><g id="elem_nxt"><rect fill="#F1F1F1" height="36.4883" rx="2.5" ry="2.5" style="stroke:#181818;stroke-width:0.5;" width="138" x="290.5" y="477"/><text fill="#000000" font-family="sans-serif" font-size="14" lengthAdjust="spacing" textLength="29" x="300.5" y="500.5352">Test</text><text fill="#000000" font-family="sans-serif" font-size="14" lengthAdjust="spacing" textLength="4" x="329.5" y="500.5352"> </text><text fill="#000000" font-family="sans-serif" font-size="14" lengthAdjust="spacing" textLength="7" x="333.5" y="500.5352">/</text><text fill="#000000" font-family="sans-serif" font-size="14" lengthAdjust="spacing" textLength="4" x="340.5" y="500.5352"> </text><text fill="#000000" font-family="sans-serif" font-size="14" lengthAdjust="spacing" textLength="32" x="344.5" y="500.5352">Next</text><text fill="#000000" font-family="sans-serif" font-size="14" lengthAdjust="spacing" textLength="4" x="376.5" y="500.5352"> </text><text fill="#000000" font-family="sans-serif" font-size="14" lengthAdjust="spacing" textLength="38" x="380.5" y="500.5352">(CPU)</text></g><!--entity sto--><g id="elem_sto"><rect fill="#F1F1F1" height="36.4883" rx="2.5" ry="2.5" style="stroke:#181818;stroke-width:0.5;" width="159" x="280" y="701"/><text fill="#000000" font-family="sans-serif" font-size="14" lengthAdjust="spacing" textLength="29" x="290" y="724.5352">Test</text><text fill="#000000" font-family="sans-serif" font-size="14" lengthAdjust="spacing" textLength="4" x="319" y="724.5352"> </text><text fill="#000000" font-family="sans-serif" font-size="14" lengthAdjust="spacing" textLength="7" x="323" y="724.5352">/</text><text fill="#000000" font-family="sans-serif" font-size="14" lengthAdjust="spacing" textLength="4" x="330" y="724.5352"> </text><text fill="#000000" font-family="sans-serif" font-size="14" lengthAdjust="spacing" textLength="53" x="334" y="724.5352">Storage</text><text fill="#000000" font-family="sans-serif" font-size="14" lengthAdjust="spacing" textLength="4" x="387" y="724.5352"> </text><text fill="#000000" font-family="sans-serif" font-size="14" lengthAdjust="spacing" textLength="38" x="391" y="724.5352">(CPU)</text></g><!--entity qua--><g id="elem_qua"><rect fill="#F1F1F1" height="36.4883" rx="2.5" ry="2.5" style="stroke:#181818;stroke-width:0.5;" width="108" x="53" y="7"/><text fill="#000000" font-family="sans-serif" font-size="14" lengthAdjust="spacing" textLength="36" x="63" y="30.5352">Code</text><text fill="#000000" font-family="sans-serif" font-size="14" lengthAdjust="spacing" textLength="4" x="99" y="30.5352"> </text><text fill="#000000" font-family="sans-serif" font-size="14" lengthAdjust="spacing" textLength="48" x="103" y="30.5352">Quality</text></g><!--link src_eve to src_car--><!--link src_car to src_nxt--><!--link src_nxt to src_sto--><!--link src_sto to src_cab--><!--link src_cab to cfg_wfl--><!--link cfg_wfl to other--><!--link src_eve to car--><g id="link_src_eve_car"><path d="M168.39,77.52 C193.2,73.39 221.35,73.38 244,86 C304.89,119.92 337.49,201.07 350.95,243.73 " fill="none" id="src_eve-to-car" style="stroke:#666666;stroke-width:1.0;"/><polygon fill="#666666" points="353.24,251.26,353.7972,242.7342,348.0538,244.4701,353.24,251.26" style="stroke:#666666;stroke-width:1.0;"/><text fill="#666666" font-family="sans-serif" font-size="12" font-weight="bold" lengthAdjust="spacing" textLength="4" x="239" y="81.6016"> </text></g><!--link src_car to car--><g id="link_src_car_car"><path d="M190.72,233.49 C215.09,238.94 241.89,244.93 266.79,250.5 " fill="none" id="src_car-to-car" style="stroke:#666666;stroke-width:1.0;"/><polygon fill="#666666" points="274.39,252.19,267.2449,247.5052,265.9263,253.3585,274.39,252.19" style="stroke:#666666;stroke-width:1.0;"/><text fill="#666666" font-family="sans-serif" font-size="12" font-weight="bold" lengthAdjust="spacing" textLength="4" x="239" y="241.6016"> </text></g><!--link src_sto to car--><g id="link_src_sto_car"><path d="M183.61,421.53 C192.64,416.92 201.08,411.17 208,404 C238.44,372.42 207.05,341.07 238,310 C245.76,302.21 255.08,295.97 265.07,290.98 " fill="none" id="src_sto-to-car" style="stroke:#666666;stroke-width:1.0;"/><polygon fill="#666666" points="272.21,287.71,263.6872,288.312,266.1846,293.7676,272.21,287.71" style="stroke:#666666;stroke-width:1.0;"/><text fill="#666666" font-family="sans-serif" font-size="12" font-weight="bold" lengthAdjust="spacing" textLength="4" x="239" y="302.6016"> </text></g><!--link cfg_wfl to car--><g id="link_cfg_wfl_car"><path d="M183.73,583.03 C192.97,578.19 201.44,571.98 208,564 C264.5,495.23 193.25,442.94 238,366 C255.9,335.21 287.96,310.68 314.52,294.26 " fill="none" id="cfg_wfl-to-car" style="stroke:#666666;stroke-width:1.0;"/><polygon fill="#666666" points="321.26,290.2,312.8589,291.7563,315.9538,296.8966,321.26,290.2" style="stroke:#666666;stroke-width:1.0;"/><text fill="#666666" font-family="sans-serif" font-size="12" font-weight="bold" lengthAdjust="spacing" textLength="4" x="239" y="356.6016"> </text></g><!--link other to car--><g id="link_other_car"><path d="M183.29,655.13 C192.71,650.34 201.35,644.1 208,636 C268.89,561.72 200.03,510.22 238,422 C259.85,371.23 303.5,323.25 331.83,295.51 " fill="none" id="other-to-car" style="stroke:#666666;stroke-width:1.0;"/><polygon fill="#666666" points="337.24,290.29,329.4006,293.6875,333.5675,298.0045,337.24,290.29" style="stroke:#666666;stroke-width:1.0;"/><text fill="#666666" font-family="sans-serif" font-size="12" font-weight="bold" lengthAdjust="spacing" textLength="4" x="239" y="409.6016"> </text></g><!--link src_eve to eve--><g id="link_src_eve_eve"><path d="M172.39,77.56 C184.68,72.75 197.09,66.92 208,60 C223.92,49.89 220.58,37.21 238,30 C259.43,21.12 284.65,22.98 306.46,28.01 " fill="none" id="src_eve-to-eve" style="stroke:#666666;stroke-width:1.0;"/><polygon fill="#666666" points="314.12,29.96,307.1139,25.0698,305.6259,30.8824,314.12,29.96" style="stroke:#666666;stroke-width:1.0;"/><text fill="#666666" font-family="sans-serif" font-size="12" font-weight="bold" lengthAdjust="spacing" textLength="4" x="239" y="25.6016"> </text></g><!--link cfg_wfl to eve--><g id="link_cfg_wfl_eve"><path d="M183.76,583.71 C193.11,578.77 201.61,572.35 208,564 C258.76,497.57 206.08,266.26 238,189 C257.8,141.06 300.1,97.45 328.93,71.56 " fill="none" id="cfg_wfl-to-eve" style="stroke:#666666;stroke-width:1.0;"/><polygon fill="#666666" points="334.81,66.37,326.824,69.4072,330.7902,73.9093,334.81,66.37" style="stroke:#666666;stroke-width:1.0;"/><text fill="#666666" font-family="sans-serif" font-size="12" font-weight="bold" lengthAdjust="spacing" textLength="4" x="239" y="176.6016"> </text></g><!--link src_eve to nxt--><g id="link_src_eve_nxt"><path d="M132.41,114.37 C153.29,130.52 183.72,155.1 208,179 C225.52,196.24 231.7,199.71 244,221 C264.04,255.68 259.15,268.79 274,306 C297.4,364.62 328.46,431.75 345.66,468.14 " fill="none" id="src_eve-to-nxt" style="stroke:#666666;stroke-width:1.0;"/><polygon fill="#666666" points="349.07,475.33,348.3522,466.8162,342.9311,469.3875,349.07,475.33" style="stroke:#666666;stroke-width:1.0;"/><text fill="#666666" font-family="sans-serif" font-size="12" font-weight="bold" lengthAdjust="spacing" textLength="4" x="239" y="209.6016"> </text></g><!--link src_nxt to nxt--><g id="link_src_nxt_nxt"><path d="M177.25,387.42 C188.06,391.91 198.72,397.37 208,404 C225.52,416.49 220.98,428.83 238,442 C254.3,454.61 274.07,464.91 292.85,472.97 " fill="none" id="src_nxt-to-nxt" style="stroke:#666666;stroke-width:1.0;"/><polygon fill="#666666" points="299.99,475.93,293.7456,470.0984,291.4508,475.6423,299.99,475.93" style="stroke:#666666;stroke-width:1.0;"/><text fill="#666666" font-family="sans-serif" font-size="12" font-weight="bold" lengthAdjust="spacing" textLength="4" x="239" y="438.6016"> </text></g><!--link src_sto to nxt--><g id="link_src_sto_nxt"><path d="M168.17,458.49 C181.6,463.48 195.54,469.36 208,476 C222.6,483.77 222.29,492.85 238,498 C251.46,502.4 266.22,504.27 280.66,504.63 " fill="none" id="src_sto-to-nxt" style="stroke:#666666;stroke-width:1.0;"/><polygon fill="#666666" points="288.57,504.66,280.5808,501.6314,280.5593,507.6314,288.57,504.66" style="stroke:#666666;stroke-width:1.0;"/><text fill="#666666" font-family="sans-serif" font-size="12" font-weight="bold" lengthAdjust="spacing" textLength="4" x="239" y="494.6016"> </text></g><!--link cfg_wfl to nxt--><g id="link_cfg_wfl_nxt"><path d="M183.75,617.73 C203.93,619.23 225.31,617.76 244,610 C287.1,592.09 322.36,549.21 341.89,521.17 " fill="none" id="cfg_wfl-to-nxt" style="stroke:#666666;stroke-width:1.0;"/><polygon fill="#666666" points="346.35,514.59,339.3769,519.5271,344.3426,522.8948,346.35,514.59" style="stroke:#666666;stroke-width:1.0;"/><text fill="#666666" font-family="sans-serif" font-size="12" font-weight="bold" lengthAdjust="spacing" textLength="4" x="239" y="606.6016"> </text></g><!--link other to nxt--><g id="link_other_nxt"><path d="M183.49,659.87 C204.21,654.52 225.93,646.63 244,635 C289.32,605.82 325.34,552.82 344.16,521.07 " fill="none" id="other-to-nxt" style="stroke:#666666;stroke-width:1.0;"/><polygon fill="#666666" points="348.03,514.41,341.4237,519.8282,346.6152,522.8361,348.03,514.41" style="stroke:#666666;stroke-width:1.0;"/><text fill="#666666" font-family="sans-serif" font-size="12" font-weight="bold" lengthAdjust="spacing" textLength="4" x="239" y="631.6016"> </text></g><!--link src_sto to sto--><g id="link_src_sto_sto"><path d="M178.19,458.39 C188.83,463.06 199.18,468.85 208,476 C210.45,477.98 303.99,630.17 342.34,692.66 " fill="none" id="src_sto-to-sto" style="stroke:#666666;stroke-width:1.0;"/><polygon fill="#666666" points="346.37,699.22,344.7391,690.8331,339.6265,693.9735,346.37,699.22" style="stroke:#666666;stroke-width:1.0;"/><text fill="#666666" font-family="sans-serif" font-size="12" font-weight="bold" lengthAdjust="spacing" textLength="4" x="239" y="520.6016"> </text></g><!--link src_cab to sto--><g id="link_src_cab_sto"><path d="M185.76,546.7 C194,551.83 201.67,557.88 208,565 C237.43,598.08 209.12,626.44 238,660 C251.64,675.84 270.53,687.83 289.3,696.72 " fill="none" id="src_cab-to-sto" style="stroke:#666666;stroke-width:1.0;"/><polygon fill="#666666" points="296.53,699.96,290.4662,693.9408,288.0036,699.4122,296.53,699.96" style="stroke:#666666;stroke-width:1.0;"/><text fill="#666666" font-family="sans-serif" font-size="12" font-weight="bold" lengthAdjust="spacing" textLength="4" x="239" y="656.6016"> </text></g><!--link cfg_wfl to sto--><g id="link_cfg_wfl_sto"><path d="M183.81,617.57 C192.92,622.32 201.33,628.35 208,636 C250.37,684.63 187.9,737.37 238,778 C268.39,802.64 310.79,769.54 336.34,743.86 " fill="none" id="cfg_wfl-to-sto" style="stroke:#666666;stroke-width:1.0;"/><polygon fill="#666666" points="341.72,738.29,334.0055,741.9625,338.3225,746.1294,341.72,738.29" style="stroke:#666666;stroke-width:1.0;"/><text fill="#666666" font-family="sans-serif" font-size="12" font-weight="bold" lengthAdjust="spacing" textLength="4" x="239" y="774.6016"> </text></g><!--SRC=[XP5DJyCm38Rl-HNXr0rrwcL7j4l53I4OS9gcAatTDbf8HffjzD_Zfkb7c1WNftxyndRVI2WjjPeQKTMM5i80jq8h4f6erB80Gnl3CpW3tP48FvFAhezjWY2v9z6-qt5c2keLxz1Ocj37C_ZYS7krEqecr7wrwQI4t0d5vQa0-f2katITfVhpg1Keko6a5iWR2mQqROyeBeM4sHvTRFJ9S6Wehvcge23xIOJxe0YZXKOmTKkglYrA5U1nGzMWFpk2qR3gdybvC3bd_02g-EiABwliKagySj7cK4fzkP9eMqFtD_tPeRc4u3xAUkzdrkzzeNV25z9nhKNwyh4SHRq7NlJSMH7M-x_tzJTlGYZvEZ6Kf1gVxVN4fB1jjzmJQxFjmZzRF3pDSiOnZOTtc7DCuy7vESTqw9E7VV9uS7FWFerx2vU4a2t8QHitEgBHSiIEN6CtCyHZwn2xGNCOJdJXkiU4Gxdp8DZ4aMli5Wpns3p4Vi49XZrS-6L9_XkFhIVy0m00]--></g></svg>