<?xml version="1.0" encoding="UTF-8" standalone="no"?><svg xmlns="http://www.w3.org/2000/svg" xmlns:xlink="http://www.w3.org/1999/xlink" contentStyleType="text/css" height="540px" preserveAspectRatio="none" style="width:507px;height:540px;background:#FFFFFF;" version="1.1" viewBox="0 0 507 540" width="507px" zoomAndPan="magnify"><defs/><g><!--entity always--><g id="elem_always"><rect fill="#F1F1F1" height="22.4883" rx="2.5" ry="2.5" style="stroke:#181818;stroke-width:0.5;" width="65" x="105.5" y="14"/><text fill="#000000" font-family="sans-serif" font-size="14" lengthAdjust="spacing" textLength="45" x="115.5" y="30.5352">always</text></g><!--entity src_eve--><g id="elem_src_eve"><path d="M56.5,73.5 L56.5,104.9883 A2.5,2.5 0 0 0 59,107.4883 L217,107.4883 A2.5,2.5 0 0 0 219.5,104.9883 L219.5,81 L209.5,71 L59,71 A2.5,2.5 0 0 0 56.5,73.5 " fill="#DDA0DD" style="stroke:#BA55D3;stroke-width:0.5;"/><path d="M209.5,71 L209.5,78.5 A2.5,2.5 0 0 0 212,81 L219.5,81 " fill="#DDA0DD" style="stroke:#BA55D3;stroke-width:0.5;"/><text fill="#000000" font-family="sans-serif" font-size="14" lengthAdjust="spacing" textLength="143" x="66.5" y="94.5352">eve sources changed</text></g><!--entity src_car--><g id="elem_src_car"><path d="M37,144.5 L37,175.9883 A2.5,2.5 0 0 0 39.5,178.4883 L236.5,178.4883 A2.5,2.5 0 0 0 239,175.9883 L239,152 L229,142 L39.5,142 A2.5,2.5 0 0 0 37,144.5 " fill="#FFD700" style="stroke:#B8860B;stroke-width:0.5;"/><path d="M229,142 L229,149.5 A2.5,2.5 0 0 0 231.5,152 L239,152 " fill="#FFD700" style="stroke:#B8860B;stroke-width:0.5;"/><text fill="#000000" font-family="sans-serif" font-size="14" lengthAdjust="spacing" textLength="182" x="47" y="165.5352">cartesian sources changed</text></g><!--entity src_nxt--><g id="elem_src_nxt"><path d="M52.5,215.5 L52.5,246.9883 A2.5,2.5 0 0 0 55,249.4883 L221,249.4883 A2.5,2.5 0 0 0 223.5,246.9883 L223.5,223 L213.5,213 L55,213 A2.5,2.5 0 0 0 52.5,215.5 " fill="#C2F0FF" style="stroke:#6495ED;stroke-width:0.5;"/><path d="M213.5,213 L213.5,220.5 A2.5,2.5 0 0 0 216,223 L223.5,223 " fill="#C2F0FF" style="stroke:#6495ED;stroke-width:0.5;"/><text fill="#000000" font-family="sans-serif" font-size="14" lengthAdjust="spacing" textLength="151" x="62.5" y="236.5352">next sources changed</text></g><!--entity src_sto--><g id="elem_src_sto"><path d="M42,286.5 L42,317.9883 A2.5,2.5 0 0 0 44.5,320.4883 L231.5,320.4883 A2.5,2.5 0 0 0 234,317.9883 L234,294 L224,284 L44.5,284 A2.5,2.5 0 0 0 42,286.5 " fill="#7FFFD4" style="stroke:#008B8B;stroke-width:0.5;"/><path d="M224,284 L224,291.5 A2.5,2.5 0 0 0 226.5,294 L234,294 " fill="#7FFFD4" style="stroke:#008B8B;stroke-width:0.5;"/><text fill="#000000" font-family="sans-serif" font-size="14" lengthAdjust="spacing" textLength="172" x="52" y="307.5352">storage sources changed</text></g><!--entity src_cab--><g id="elem_src_cab"><path d="M6,357.5 L6,388.9883 A2.5,2.5 0 0 0 8.5,391.4883 L267.5,391.4883 A2.5,2.5 0 0 0 270,388.9883 L270,365 L260,355 L8.5,355 A2.5,2.5 0 0 0 6,357.5 " fill="#FFD700" style="stroke:#B8860B;stroke-width:0.5;"/><path d="M260,355 L260,362.5 A2.5,2.5 0 0 0 262.5,365 L270,365 " fill="#FFD700" style="stroke:#B8860B;stroke-width:0.5;"/><text fill="#000000" font-family="sans-serif" font-size="14" lengthAdjust="spacing" textLength="244" x="16" y="378.5352">cartesian backend sources changed</text></g><!--entity cfg_wfl--><g id="elem_cfg_wfl"><path d="M61.5,428.5 L61.5,459.9883 A2.5,2.5 0 0 0 64,462.4883 L212,462.4883 A2.5,2.5 0 0 0 214.5,459.9883 L214.5,436 L204.5,426 L64,426 A2.5,2.5 0 0 0 61.5,428.5 " fill="#FF7F50" style="stroke:#FF6347;stroke-width:0.5;"/><path d="M204.5,426 L204.5,433.5 A2.5,2.5 0 0 0 207,436 L214.5,436 " fill="#FF7F50" style="stroke:#FF6347;stroke-width:0.5;"/><text fill="#000000" font-family="sans-serif" font-size="14" lengthAdjust="spacing" textLength="133" x="71.5" y="449.5352">workflows changed</text></g><!--entity other--><g id="elem_other"><path d="M62,499.5 L62,530.9883 A2.5,2.5 0 0 0 64.5,533.4883 L211.5,533.4883 A2.5,2.5 0 0 0 214,530.9883 L214,507 L204,497 L64.5,497 A2.5,2.5 0 0 0 62,499.5 " fill="#98FB98" style="stroke:#228B22;stroke-width:0.5;"/><path d="M204,497 L204,504.5 A2.5,2.5 0 0 0 206.5,507 L214,507 " fill="#98FB98" style="stroke:#228B22;stroke-width:0.5;"/><text fill="#000000" font-family="sans-serif" font-size="14" lengthAdjust="spacing" textLength="132" x="72" y="520.5352">other files changed</text></g><!--entity eve--><g id="elem_eve"><rect fill="#DDA0DD" height="36.4883" rx="2.5" ry="2.5" style="stroke:#BA55D3;stroke-width:0.5;" width="87" x="372" y="110"/><text fill="#000000" font-family="sans-serif" font-size="14" lengthAdjust="spacing" textLength="67" x="382" y="133.5352">Test / Eve</text></g><!--entity car--><g id="elem_car"><rect fill="#FFD700" height="36.4883" rx="2.5" ry="2.5" style="stroke:#B8860B;stroke-width:0.5;" width="171" x="330" y="213"/><text fill="#000000" font-family="sans-serif" font-size="14" lengthAdjust="spacing" textLength="151" x="340" y="236.5352">Test / Cartesian (CPU)</text></g><!--entity nxt--><g id="elem_nxt"><rect fill="#C2F0FF" height="36.4883" rx="2.5" ry="2.5" style="stroke:#6495ED;stroke-width:0.5;" width="138" x="346.5" y="284"/><text fill="#000000" font-family="sans-serif" font-size="14" lengthAdjust="spacing" textLength="118" x="356.5" y="307.5352">Test / Next (CPU)</text></g><!--entity sto--><g id="elem_sto"><rect fill="#7FFFD4" height="36.4883" rx="2.5" ry="2.5" style="stroke:#008B8B;stroke-width:0.5;" width="159" x="336" y="355"/><text fill="#000000" font-family="sans-serif" font-size="14" lengthAdjust="spacing" textLength="139" x="346" y="378.5352">Test / Storage (CPU)</text></g><!--entity qua--><g id="elem_qua"><rect fill="#F1F1F1" height="36.4883" rx="2.5" ry="2.5" style="stroke:#181818;stroke-width:0.5;" width="108" x="361.5" y="7"/><text fill="#000000" font-family="sans-serif" font-size="14" lengthAdjust="spacing" textLength="88" x="371.5" y="30.5352">Code Quality</text></g><!--link always to src_eve--><!--link src_eve to src_car--><!--link src_car to src_nxt--><!--link src_nxt to src_sto--><!--link src_sto to src_cab--><!--link src_cab to cfg_wfl--><!--link cfg_wfl to other--><!--link always to qua--><g id="link_always_qua"><path codeLine="65" d="M170.92,25 C170.92,25 354.66,25 354.66,25 " fill="none" id="always-to-qua" style="stroke:#181818;stroke-width:1.0;"/><polygon fill="#181818" points="359.66,25,350.66,21,354.66,25,350.66,29,359.66,25" style="stroke:#181818;stroke-width:1.0;"/></g><!--link src_eve to car--><g id="link_src_eve_car"><path codeLine="67" d="M219.91,89 C278.11,89 346,89 346,89 C346,89 346,206.21 346,206.21 " fill="none" id="src_eve-to-car" style="stroke:#BA55D3;stroke-width:2.0;"/><polygon fill="#BA55D3" points="346,211.21,350,202.21,346,206.21,342,202.21,346,211.21" style="stroke:#BA55D3;stroke-width:2.0;"/></g><!--link src_car to car--><g id="link_src_car_car"><path codeLine="68" d="M227,178.34 C227,195.66 227,219 227,219 C227,219 323.01,219 323.01,219 " fill="none" id="src_car-to-car" style="stroke:#B8860B;stroke-width:2.0;"/><polygon fill="#B8860B" points="328.01,219,319.01,215,323.01,219,319.01,223,328.01,219" style="stroke:#B8860B;stroke-width:2.0;"/></g><!--link src_sto to car--><g id="link_src_sto_car"><path codeLine="69" d="M231,283.75 C231,260.98 231,225 231,225 C231,225 323.22,225 323.22,225 " fill="none" id="src_sto-to-car" style="stroke:#008B8B;stroke-width:2.0;"/><polygon fill="#008B8B" points="328.22,225,319.22,221,323.22,225,319.22,229,328.22,225" style="stroke:#008B8B;stroke-width:2.0;"/></g><!--link cfg_wfl to car--><g id="link_cfg_wfl_car"><path codeLine="70" d="M214.89,440.4 C252.59,440.4 290,440.4 290,440.4 C290,440.4 290,237 290,237 C290,237 323.2,237 323.2,237 " fill="none" id="cfg_wfl-to-car" style="stroke:#FF6347;stroke-width:2.0;"/><polygon fill="#FF6347" points="328.2,237,319.2,233,323.2,237,319.2,241,328.2,237" style="stroke:#FF6347;stroke-width:2.0;"/></g><!--link other to car--><g id="link_other_car"><path codeLine="71" d="M214.26,509 C256.27,509 300,509 300,509 C300,509 300,243 300,243 C300,243 323.23,243 323.23,243 " fill="none" id="other-to-car" style="stroke:#228B22;stroke-width:2.0;"/><polygon fill="#228B22" points="328.23,243,319.23,239,323.23,243,319.23,247,328.23,243" style="stroke:#228B22;stroke-width:2.0;"/></g><!--link src_eve to eve--><g id="link_src_eve_eve"><path codeLine="73" d="M219.91,80 C301.91,80 416,80 416,80 C416,80 416,103.07 416,103.07 " fill="none" id="src_eve-to-eve" style="stroke:#BA55D3;stroke-width:2.0;"/><polygon fill="#BA55D3" points="416,108.07,420,99.07,416,103.07,412,99.07,416,108.07" style="stroke:#BA55D3;stroke-width:2.0;"/></g><!--link cfg_wfl to eve--><g id="link_cfg_wfl_eve"><path codeLine="74" d="M214.82,433.2 C248.28,433.2 280,433.2 280,433.2 C280,433.2 280,126 280,126 C280,126 364.99,126 364.99,126 " fill="none" id="cfg_wfl-to-eve" style="stroke:#FF6347;stroke-width:2.0;"/><polygon fill="#FF6347" points="369.99,126,360.99,122,364.99,126,360.99,130,369.99,126" style="stroke:#FF6347;stroke-width:2.0;"/></g><!--link src_eve to nxt--><g id="link_src_eve_nxt"><path codeLine="76" d="M219.71,98 C241.94,98 260,98 260,98 C260,98 260,289.14 260,289.14 C260,289.14 339.88,289.14 339.88,289.14 " fill="none" id="src_eve-to-nxt" style="stroke:#BA55D3;stroke-width:2.0;"/><polygon fill="#BA55D3" points="344.88,289.14,335.88,285.14,339.88,289.14,335.88,293.14,344.88,289.14" style="stroke:#BA55D3;stroke-width:2.0;"/></g><!--link src_nxt to nxt--><g id="link_src_nxt_nxt"><path codeLine="77" d="M223.74,231 C238.93,231 250,231 250,231 C250,231 250,294.29 250,294.29 C250,294.29 339.76,294.29 339.76,294.29 " fill="none" id="src_nxt-to-nxt" style="stroke:#6495ED;stroke-width:2.0;"/><polygon fill="#6495ED" points="344.76,294.29,335.76,290.29,339.76,294.29,335.76,298.29,344.76,294.29" style="stroke:#6495ED;stroke-width:2.0;"/></g><!--link src_sto to nxt--><g id="link_src_sto_nxt"><path codeLine="78" d="M234.28,299.43 C234.28,299.43 339.55,299.43 339.55,299.43 " fill="none" id="src_sto-to-nxt" style="stroke:#008B8B;stroke-width:2.0;"/><polygon fill="#008B8B" points="344.55,299.43,335.55,295.43,339.55,299.43,335.55,303.43,344.55,299.43" style="stroke:#008B8B;stroke-width:2.0;"/></g><!--link cfg_wfl to nxt--><g id="link_cfg_wfl_nxt"><path codeLine="79" d="M214.94,447.6 C260.74,447.6 310,447.6 310,447.6 C310,447.6 310,309.71 310,309.71 C310,309.71 339.5,309.71 339.5,309.71 " fill="none" id="cfg_wfl-to-nxt" style="stroke:#FF6347;stroke-width:2.0;"/><polygon fill="#FF6347" points="344.5,309.71,335.5,305.71,339.5,309.71,335.5,313.71,344.5,309.71" style="stroke:#FF6347;stroke-width:2.0;"/></g><!--link other to nxt--><g id="link_other_nxt"><path codeLine="80" d="M214.39,521 C264.2,521 320,521 320,521 C320,521 320,314.86 320,314.86 C320,314.86 339.58,314.86 339.58,314.86 " fill="none" id="other-to-nxt" style="stroke:#228B22;stroke-width:2.0;"/><polygon fill="#228B22" points="344.58,314.86,335.58,310.86,339.58,314.86,335.58,318.86,344.58,314.86" style="stroke:#228B22;stroke-width:2.0;"/></g><!--link src_sto to sto--><g id="link_src_sto_sto"><path codeLine="82" d="M234.32,304.57 C287.14,304.57 342,304.57 342,304.57 C342,304.57 342,348.15 342,348.15 " fill="none" id="src_sto-to-sto" style="stroke:#008B8B;stroke-width:2.0;"/><polygon fill="#008B8B" points="342,353.15,346,344.15,342,348.15,338,344.15,342,353.15" style="stroke:#008B8B;stroke-width:2.0;"/></g><!--link src_cab to sto--><g id="link_src_cab_sto"><path codeLine="83" d="M270.25,373 C270.25,373 329.09,373 329.09,373 " fill="none" id="src_cab-to-sto" style="stroke:#B8860B;stroke-width:2.0;"/><polygon fill="#B8860B" points="334.09,373,325.09,369,329.09,373,325.09,377,334.09,373" style="stroke:#B8860B;stroke-width:2.0;"/></g><!--link cfg_wfl to sto--><g id="link_cfg_wfl_sto"><path codeLine="84" d="M214.7,454.8 C296.99,454.8 416,454.8 416,454.8 C416,454.8 416,397.67 416,397.67 " fill="none" id="cfg_wfl-to-sto" style="stroke:#FF6347;stroke-width:2.0;"/><polygon fill="#FF6347" points="416,392.67,412,401.67,416,397.67,420,401.67,416,392.67" style="stroke:#FF6347;stroke-width:2.0;"/></g><!--SRC=[bPDTJzim58Rl_Iiy-MAR14AQk88DgSi6GjeWsxghggfSvwInujYTur3wxtUC4uXfIzAxn7xFu_Fn7WMveyvGArU5evcq89mqcjIbr6jkUKMLrE2sQw36ki8GylwTr48r6T3FoVbPShv8JBKs6hIx8aHmcr6kDdnRqna97sHESgc0rbOiu04eIrLJNNhinK_8P5FTMr78xDB1exjOAYvA3FN2sZHMG4r5mVKAiZu7tw7ingWiSBvnM_e_qB_DAn0g7TIIwxTm-j5HDadJ7xV9P7fxVnUeYR7wMfaDsA-gWHYhyUSjOeqzPPD_3Q-uHTPBcicMwnY5KijN0-KkZovtYGUWiqDOaQyMcrnHXbLo5RXJKt5dUi0PsHXRvjY3dNZZ2i0Pf5p1ZGNGWN1jBDGk74Hv1RcFx9C8rgqT7UsAASBf6Vt-01WSOiSxeGrEdZlq8Kd_Vdm67U-15dZdhH2pZfX-2_dJcY3c804bYS5b-zLm9TtsgMbXl-Zf31k4bSxjwLMtNQJRifrBR1JfLcVd4eidtIBiN68rfFFq7koIT1QDBbk3aSveqUMJ7NgLP7Y6nP9U-gnlWnDNI55ggEild-PU75V3eh4V58S2M3U8lRgNT5bOXxsgO6S_0jQp_5xfw9Byz8PVzwhHo7YiB3RpGVLGcxnkE56l6jacBntrSkV4OBQ1gNlnS9fUzHy0]--></g></svg>